<svg xmlns="http://www.w3.org/2000/svg" data-name="Layer 1" viewBox="0 0 64 80" x="0px" y="0px"><title>weather-climate-hot-cold-warm-forecast-cloud</title><rect x="19" y="2" width="2" height="4"/><rect x="2" y="19" width="4" height="2"/><rect x="7.65" y="6.72" width="2" height="4.24" transform="translate(-3.72 8.89) rotate(-45.85)"/><rect x="4.84" y="28.86" width="4.24" height="2" transform="translate(-19.32 14.06) rotate(-45.85)"/><rect x="28.53" y="7.51" width="4.24" height="2" transform="translate(3.2 24.58) rotate(-45.87)"/><path d="M50.78,26.12C49,20.8,42.91,17,36,17a16.39,16.39,0,0,0-4.25.56A12,12,0,1,0,13.8,30.25a6.36,6.36,0,0,0-.45.74H13C6.93,31,2,35.49,2,41S6.93,51,13,51H29.63L27,60.74a1,1,0,0,0,.59,1.18A.84.84,0,0,0,28,62a1,1,0,0,0,.87-.5L35,50.9V51H48c7.57-.26,14-6.21,14-13C62,32.19,57.42,27.38,50.78,26.12ZM10,20a10,10,0,0,1,19.84-1.8l-.18.09q-.53.23-1,.48l-.14.08a13.34,13.34,0,0,0-5,4.7h0a12,12,0,0,0-.61,1.11.91.91,0,0,0-.07.14A13.07,13.07,0,0,0,22.26,26h0c-.42,0-.83.08-1.24.14l-.48.09c-.27,0-.54.11-.8.18l-.57.15c-.31.09-.62.2-.92.31l-.5.22c-.21.09-.43.19-.63.3l-.4.21a9.61,9.61,0,0,0-.92.59l-.19.15-.44.35A10,10,0,0,1,10,20ZM33,46.26a1,1,0,0,0-.18-.87A1,1,0,0,0,32,45H26.3L29,35h5.6l-2.5,6.65a1,1,0,0,0,.12.92A1,1,0,0,0,33,43h4.27L30.91,54ZM48,49H36.1l3.77-6.5a1,1,0,0,0,0-1A1,1,0,0,0,39,41H34.44l2.5-6.65a1,1,0,0,0-.12-.92A1,1,0,0,0,36,33H28.19a1,1,0,0,0-1,.74L24,45.74a1,1,0,0,0,.18.87A1,1,0,0,0,25,47h5.7l-.54,2H13c-5,0-9-3.59-9-8s4-8,9-8h.35a5.56,5.56,0,0,1,.58,0l.75,0,.26-.71a5.51,5.51,0,0,1,1.91-2.43l.1-.07a7.56,7.56,0,0,1,.87-.55l.1-.06a10.29,10.29,0,0,1,2.26-.86l.23-.05c.32-.08.66-.14,1-.19l.32,0C22.15,28,22.58,28,23,28h.75l.2-.72a10.46,10.46,0,0,1,.4-1.11,2.07,2.07,0,0,1,.15-.34,7.85,7.85,0,0,1,.38-.77c.06-.1.11-.21.18-.31a8.8,8.8,0,0,1,.6-.9,3.68,3.68,0,0,1,.31-.38A6.4,6.4,0,0,1,26.4,23l.39-.41c.16-.16.33-.31.51-.46s.44-.37.67-.55l.52-.36.49-.31c.22-.13.44-.26.67-.37L30,20.3c.35-.16.71-.31,1.08-.44A13.9,13.9,0,0,1,36,19c6.19,0,11.79,3.55,13,8.26l.17.63.65.1C55.83,28.9,60,33,60,38,60,43.74,54.49,48.78,48,49Z"/><rect x="10" y="53" width="2" height="9"/><rect x="18" y="53" width="2" height="9"/><rect x="44" y="53" width="2" height="9"/><rect x="52" y="53" width="2" height="9"/><text x="0" y="79" fill="#000000" font-size="5px" font-weight="bold" font-family="'Helvetica Neue', Helvetica, Arial-Unicode, Arial, Sans-serif">Created by Nithinan Tatah</text><text x="0" y="84" fill="#000000" font-size="5px" font-weight="bold" font-family="'Helvetica Neue', Helvetica, Arial-Unicode, Arial, Sans-serif">from the Noun Project</text></svg>