<svg xmlns="http://www.w3.org/2000/svg" data-name="Layer 1" viewBox="0 0 64 80" x="0px" y="0px"><title>branding-logo-brand-worldwide-global-marketing</title><path d="M28.929,37.551l-.974,3.154a1,1,0,0,0,1.563,1.089L32,39.9l2.482,1.9a1,1,0,0,0,1.563-1.089l-.974-3.154,2.536-1.937A1,1,0,0,0,37,33.82H33.918l-.963-3.115a1,1,0,0,0-1.91,0l-.963,3.115H27a1,1,0,0,0-.607,1.794Zm1.89-1.731a1,1,0,0,0,.955-.7L32,34.386l.226.729a1,1,0,0,0,.955.7h.863l-.741.566a1,1,0,0,0-.348,1.089l.256.831-.6-.461a1,1,0,0,0-1.214,0l-.6.461.256-.831a1,1,0,0,0-.348-1.089l-.741-.566Z"/><path d="M11.993,52.585c.013.018.02.039.034.056.5.6,1.03,1.166,1.576,1.713l.032.033c.286.286.578.563.875.835l.034.03a25.965,25.965,0,0,0,6.162,4.164l.039.019c.3.143.6.276.9.407.116.051.232.1.349.152.255.107.513.207.772.3.171.065.341.13.514.191.228.082.458.159.689.234q.313.1.631.2t.627.179c.239.065.481.124.723.182.192.046.384.093.578.134.265.057.532.107.8.156.178.032.355.067.533.1.29.046.582.084.874.121.163.02.325.044.489.062.323.034.649.058.975.081.136.009.271.023.407.031.462.024.927.038,1.4.038s.934-.014,1.4-.038c.136-.008.271-.022.407-.031.326-.023.652-.047.975-.081.164-.018.326-.042.489-.062.292-.037.584-.075.874-.121.178-.029.355-.064.533-.1.268-.049.535-.1.8-.156.194-.041.386-.088.579-.134.242-.058.483-.117.722-.182q.315-.085.627-.179t.631-.2c.231-.075.461-.152.689-.234.173-.061.343-.126.514-.191.259-.1.517-.2.772-.3.117-.049.233-.1.349-.152.3-.131.6-.264.9-.407l.039-.019a25.965,25.965,0,0,0,6.162-4.164l.034-.03c.3-.272.589-.549.875-.835l.032-.033c.546-.547,1.075-1.114,1.576-1.713.014-.017.021-.038.034-.056a25.945,25.945,0,0,0,0-33.17c-.013-.018-.02-.039-.034-.056-.5-.6-1.03-1.166-1.576-1.713l-.032-.033c-.286-.286-.578-.563-.875-.835l-.034-.03a25.965,25.965,0,0,0-6.162-4.164l-.039-.019c-.3-.143-.6-.276-.9-.407-.1-.045-.206-.093-.31-.137l1.9-5.705a1,1,0,0,0-1.09-1.306l-6.5.929L32.707,2.293a1,1,0,0,0-1.414,0L27.646,5.939l-6.5-.929a1,1,0,0,0-1.09,1.306l1.9,5.705c-.1.044-.206.092-.31.137-.3.131-.6.264-.9.407l-.039.019a25.965,25.965,0,0,0-6.162,4.164l-.034.03c-.3.272-.589.549-.875.835l-.032.033c-.546.547-1.075,1.114-1.576,1.713-.014.017-.021.038-.034.056a25.945,25.945,0,0,0,0,33.17ZM13.285,21h6.248a27.839,27.839,0,0,0-1.559,5H13a1,1,0,0,0-1,1v8H8.025A23.879,23.879,0,0,1,13.285,21Zm42.69,14H52V27a1,1,0,0,0-1-1H45.791a31.6,31.6,0,0,0-1.7-5h6.628A23.879,23.879,0,0,1,55.975,35Zm-5.26,16H44.279a35.375,35.375,0,0,0,1.57-5H51a1,1,0,0,0,1-1V37h3.975A23.879,23.879,0,0,1,50.715,51ZM40.323,58.51c-.032.012-.063.025-.095.036-.291.107-.587.2-.883.3-.068.022-.136.046-.2.067A20.209,20.209,0,0,0,43.384,53h5.539A24.047,24.047,0,0,1,40.323,58.51Zm-16.551.036c-.032-.011-.063-.024-.095-.036a24.047,24.047,0,0,1-8.6-5.51h5.539a20.209,20.209,0,0,0,4.243,5.913c-.068-.021-.136-.045-.2-.067C24.359,58.75,24.063,58.653,23.772,58.546ZM20.2,46H31v5H21.9A31.607,31.607,0,0,1,20.2,46Zm1.538-25H31v5H20.009A24.124,24.124,0,0,1,21.737,21Zm2.742-7.767c.338-.111.672-.233,1.014-.329.06-.017.119-.035.179-.051l.02-.006q.979-.265,1.976-.448l.094-.017a24.278,24.278,0,0,1,8.476,0l.094.017q1,.182,1.976.448l.02.006c.06.016.119.034.179.051.342.1.676.218,1.014.329a2.058,2.058,0,0,1,.417.267,4.14,4.14,0,0,1-1.375.656c-.086.029-.175.056-.265.083-.192.057-.4.114-.622.168-.065.016-.127.033-.194.048-.3.069-.621.135-.971.2-.076.013-.157.023-.234.035-.276.045-.571.084-.878.121-.13.015-.259.031-.392.045-.377.038-.775.071-1.2.095-.112.007-.226.011-.339.016C33,14.984,32.52,15,32,15c-.5,0-.962-.016-1.415-.036-.149-.007-.3-.013-.446-.022-.368-.022-.715-.051-1.05-.084-.219-.021-.432-.047-.643-.073-.164-.021-.322-.043-.477-.066-.2-.029-.4-.058-.592-.092-.289-.051-.564-.105-.816-.163-.108-.024-.209-.051-.312-.077-.188-.047-.366-.1-.531-.144-.1-.03-.2-.06-.3-.092a4.1,4.1,0,0,1-1.36-.651A2.018,2.018,0,0,1,24.479,13.233ZM43.737,26H33V21h8.887A28.593,28.593,0,0,1,43.737,26ZM33,19V16.984a24.2,24.2,0,0,0,5.744-.787A19.368,19.368,0,0,1,40.8,19Zm-2-2.016V19H22.846a14.82,14.82,0,0,1,2.34-2.824A24,24,0,0,0,31,16.984ZM18.774,28H50V44H14V28ZM42.1,51H33V46H43.8A31.607,31.607,0,0,1,42.1,51ZM33,53h8.125c-2.168,3.948-5.048,6.469-8.125,6.922Zm-2,0v6.922c-3.077-.453-5.957-2.974-8.125-6.922ZM43.1,19a22.447,22.447,0,0,0-2.425-3.614,2.707,2.707,0,0,0,1.191-1.255A24.079,24.079,0,0,1,48.923,19ZM22.134,14.131a2.607,2.607,0,0,0,1.08,1.187A17.664,17.664,0,0,0,20.525,19H15.077A24.079,24.079,0,0,1,22.134,14.131ZM12,37v8a1,1,0,0,0,1,1h5.151a35.375,35.375,0,0,0,1.57,5H13.285a23.879,23.879,0,0,1-5.26-14ZM27.858,7.99a.986.986,0,0,0,.849-.283L32,4.414l3.293,3.293a.988.988,0,0,0,.849.283l5.4-.771-1.366,4.1c-.05-.017-.1-.027-.151-.043L40,11.265A22.508,22.508,0,0,0,32,10a22.508,22.508,0,0,0-8,1.265l-.022.008c-.05.016-.1.026-.151.043l-1.366-4.1Z"/><text x="0" y="79" fill="#000000" font-size="5px" font-weight="bold" font-family="'Helvetica Neue', Helvetica, Arial-Unicode, Arial, Sans-serif">Created by Nithinan Tatah</text><text x="0" y="84" fill="#000000" font-size="5px" font-weight="bold" font-family="'Helvetica Neue', Helvetica, Arial-Unicode, Arial, Sans-serif">from the Noun Project</text></svg>