<svg xmlns="http://www.w3.org/2000/svg" data-name="Layer 1" viewBox="0 0 64 80" x="0px" y="0px"><title>investigate-examine-research-explore-verify</title><path d="M15,26h2a3,3,0,0,1,3-3V21A5.006,5.006,0,0,0,15,26Z"/><path d="M20,34c.026,0,.052,0,.078,0,.047,0,.093,0,.14,0,5.943,0,8.951-2.993,11.64-7.486a1,1,0,0,0,0-1.028,15.381,15.381,0,0,0-6.1-6.167L27.8,16.6l-1.6-1.2-2.367,3.157A13.37,13.37,0,0,0,21,18.049V15H19v3.025a13.738,13.738,0,0,0-2.262.28l-1.906-2.86-1.664,1.11,1.587,2.381c-2.867,1.216-4.814,3.544-6.613,6.55a1,1,0,0,0,0,1.028c3,5.014,6.592,7.33,11.587,7.472C19.82,33.989,19.908,34,20,34Zm7.4-11.032A16.315,16.315,0,0,1,29.828,26a17.6,17.6,0,0,1-2.553,3.306,7.928,7.928,0,0,0,.124-6.34ZM12.6,29.032A16.315,16.315,0,0,1,10.172,26a17.6,17.6,0,0,1,2.553-3.306,7.928,7.928,0,0,0-.124,6.34ZM14,26a6,6,0,0,1,5.887-5.994c.3,0,.582.028.87.047a5.995,5.995,0,0,1-.644,11.941c-.3,0-.582-.028-.87-.047A6.005,6.005,0,0,1,14,26Z"/><path d="M45,20H43v2.051a8.8,8.8,0,0,0-1.576.26l-1.661-1.957-1.526,1.292,1.283,1.513A9.128,9.128,0,0,0,37.205,25.4a1,1,0,0,0,0,1.21A7.987,7.987,0,0,0,44.119,30,7.6,7.6,0,0,0,50.8,26.605a1,1,0,0,0,0-1.21,8.841,8.841,0,0,0-2.413-2.238l1.356-1.482-1.476-1.35-1.829,2A8.783,8.783,0,0,0,45,22.055Zm1.56,4.458a5.788,5.788,0,0,1,2.148,1.549,5.418,5.418,0,0,1-2.182,1.6,2.937,2.937,0,0,0,.034-3.146Zm-5.12,3.084a5.788,5.788,0,0,1-2.148-1.549,5.418,5.418,0,0,1,2.182-1.6,2.937,2.937,0,0,0-.034,3.146ZM44,27a1,1,0,1,1,1-1A1,1,0,0,1,44,27Z"/><path d="M31,2A23.1,23.1,0,0,0,12.2,12.043a15.947,15.947,0,0,0-4,24.728A26.736,26.736,0,0,0,14.77,48H14a1,1,0,0,0-1,1V61a1,1,0,0,0,1,1H24a3,3,0,0,0,2.234-5,2.827,2.827,0,0,0,.728-2.4A21.478,21.478,0,0,0,31,55c13.234,0,24-11.888,24-26.5S44.234,2,31,2ZM10.714,36.448c-.284-.253-.562-.516-.828-.794A13.96,13.96,0,0,1,13.6,13.565c.383-.2.773-.38,1.173-.541.157-.064.319-.118.479-.176.35-.126.705-.241,1.064-.339.162-.044.324-.087.488-.126.383-.089.77-.16,1.16-.217.143-.021.285-.049.43-.066a13.989,13.989,0,0,1,3.935,27.691,14.173,14.173,0,0,1-4.65,0,13.911,13.911,0,0,1-3.027-.859c-.032-.013-.066-.023-.1-.037-.288-.122-.565-.266-.843-.407-.139-.07-.282-.132-.418-.207-.2-.106-.378-.229-.567-.344-.217-.134-.436-.262-.646-.408-.121-.083-.235-.177-.354-.264-.268-.2-.536-.4-.792-.62C10.856,36.582,10.787,36.513,10.714,36.448ZM22,41.875V48H18V41.875c.077.01.155.013.233.022l.291.028c.134.013.268.028.4.037q.483.031.967.034c.035,0,.07,0,.106,0h.025c.475,0,.95-.03,1.423-.072.107-.01.213-.018.319-.03C21.845,41.888,21.923,41.885,22,41.875ZM11.317,39.437a15.774,15.774,0,0,0,2.394,1.271l.149.063c.448.187.9.356,1.368.5l.027.009c.246.077.495.143.745.207V46.4A24.829,24.829,0,0,1,11.317,39.437ZM21.018,54l2.738-.049A.988.988,0,0,0,24,54a1,1,0,0,1,1,1,.989.989,0,0,1-.7.94L20.982,56l.036,2,2.738-.049A.988.988,0,0,0,24,58a1,1,0,0,1,0,2H15V50h9a1,1,0,0,1,1,1,.979.979,0,0,1-.073.359.965.965,0,0,1-.062.114,1.038,1.038,0,0,1-.123.182,1.237,1.237,0,0,1-.268.209,1.072,1.072,0,0,1-.177.076h0L20.982,52ZM31,53a19.6,19.6,0,0,1-4.4-.506c.018-.031.024-.068.041-.1a2.908,2.908,0,0,0,.211-.508c.019-.062.038-.122.053-.186A2.946,2.946,0,0,0,27,51a3,3,0,0,0-3-3V41.473A15.989,15.989,0,0,0,20,10c-.483,0-.965.03-1.444.073-.108.01-.216.018-.323.03-.443.05-.884.116-1.321.2-.121.024-.241.053-.361.08-.152.033-.3.061-.455.1A20.675,20.675,0,0,1,31,4C43.131,4,53,14.99,53,28.5S43.131,53,31,53Z"/><path d="M27.625,43.219l-1.25,1.562a8.955,8.955,0,0,0,11.25,0l-1.25-1.562A6.962,6.962,0,0,1,27.625,43.219Z"/><rect x="57" y="60" width="4" height="2"/><rect x="51" y="60" width="4" height="2"/><rect x="45" y="60" width="4" height="2"/><text x="0" y="79" fill="#000000" font-size="5px" font-weight="bold" font-family="'Helvetica Neue', Helvetica, Arial-Unicode, Arial, Sans-serif">Created by Nithinan Tatah</text><text x="0" y="84" fill="#000000" font-size="5px" font-weight="bold" font-family="'Helvetica Neue', Helvetica, Arial-Unicode, Arial, Sans-serif">from the Noun Project</text></svg>