<svg xmlns="http://www.w3.org/2000/svg" data-name="Layer 1" viewBox="0 0 64 80" x="0px" y="0px"><title>regulate-control-manage-operate-volume-circle</title><path d="M32,2A30,30,0,1,0,62,32,30.034,30.034,0,0,0,32,2Zm0,58A28,28,0,1,1,60,32,28.032,28.032,0,0,1,32,60Z"/><path d="M33,40.1V8H31V40.1a5,5,0,0,0,0,9.8V58h2V49.9a5,5,0,0,0,0-9.8ZM32,48a3,3,0,1,1,3-3A3,3,0,0,1,32,48Z"/><path d="M17,27.1V18H15v9.1a5,5,0,0,0,0,9.8V51h2V36.9a5,5,0,0,0,0-9.8ZM16,35a3,3,0,1,1,3-3A3,3,0,0,1,16,35Z"/><path d="M49,18.1V12H47v6.1a5,5,0,0,0,0,9.8V44h2V27.9a5,5,0,0,0,0-9.8ZM48,26a3,3,0,1,1,3-3A3,3,0,0,1,48,26Z"/><rect x="47" y="46" width="2" height="5"/><rect x="15" y="12" width="2" height="4"/><text x="0" y="79" fill="#000000" font-size="5px" font-weight="bold" font-family="'Helvetica Neue', Helvetica, Arial-Unicode, Arial, Sans-serif">Created by Nithinan Tatah</text><text x="0" y="84" fill="#000000" font-size="5px" font-weight="bold" font-family="'Helvetica Neue', Helvetica, Arial-Unicode, Arial, Sans-serif">from the Noun Project</text></svg>