<svg xmlns="http://www.w3.org/2000/svg" data-name="Layer 1" viewBox="0 0 64 80" x="0px" y="0px"><title>bee-honey-hive-insect-bumblebee</title><rect x="6.585" y="17.5" width="5.831" height="2" transform="translate(-11.251 17.125) rotate(-59.027)"/><rect x="21.585" y="7.5" width="5.831" height="2" transform="translate(4.603 25.132) rotate(-59.027)"/><path d="M60.156,44.347a3.978,3.978,0,0,0-3.8-.3L51.83,45.883,53.8,41.1a4.019,4.019,0,0,0-7.156-3.55,3.98,3.98,0,0,0-.3,3.8L47.5,44.187a7.71,7.71,0,0,0-4.392-1.742,8.164,8.164,0,0,0,.964-7.15l-1.9.633a6.187,6.187,0,0,1-.541,5.122A8.184,8.184,0,0,0,37.447,36.1l-.894,1.79a6.185,6.185,0,0,1,3.405,4.978,7.638,7.638,0,0,0-2.549,1.517c-.061.055-.115.116-.175.173L34.144,39l4.444-8H48a1,1,0,0,0,.874-.515l5-9a1,1,0,0,0,0-.97l-5-9A1,1,0,0,0,48,11H38.588L33.874,2.515A1,1,0,0,0,33,2H23a1,1,0,0,0-.874.515L17.412,11H8a1,1,0,0,0-.874.515l-5,9a1,1,0,0,0,0,.97L6.856,30l-4.73,8.515a1,1,0,0,0,0,.97l5,9A1,1,0,0,0,8,49h9.412l4.714,8.485A1,1,0,0,0,23,58H33a1,1,0,0,0,.874-.515l1.978-3.561a7.8,7.8,0,0,0,1.064,1.466l3.846,4.141a7.423,7.423,0,0,0,.592.573,7.77,7.77,0,0,0,9.693.357l1.246,1.246,1.414-1.414-1.23-1.23a7.689,7.689,0,0,0,.333-9.122l3.8,1.562a4.019,4.019,0,0,0,3.55-7.156ZM48.325,38.629a2.02,2.02,0,0,1,3.611,1.745l-1.928,4.685-1.823-4.5A1.987,1.987,0,0,1,48.325,38.629ZM32.411,38H23.589L19.7,31l-.555-1,.555-1L22,24.859V29a2.824,2.824,0,1,0,5.637,0V26.5c0-.267.17-.5.363-.5s.363.233.363.5A2.438,2.438,0,0,0,30.728,29h.909A2.437,2.437,0,0,0,34,26.5V24.859L36.3,29l.555,1ZM24,29V22h8v4.5c0,.267-.17.5-.363.5h-.909a.459.459,0,0,1-.365-.5,2.367,2.367,0,1,0-4.726,0V29A.835.835,0,1,1,24,29ZM38.589,13h8.822l4.445,8-4.445,8H38.589L34.7,22l-.555-1,.555-1Zm-15-9h8.822l4.445,8L36.3,13l-3.89,7H23.589L19.7,13l-.555-1ZM4.144,21l4.445-8h8.822l3.89,7,.555,1L21.3,22l-3.89,7H8.589ZM17.411,47H8.589L4.144,39l4.445-8h8.822l3.89,7,.555,1L21.3,40ZM34.9,49.368l-.008.087c-.01.111-.027.22-.032.332,0,.086,0,.17,0,.255,0,.031,0,.062,0,.092a7.765,7.765,0,0,0,.1,1.28L32.411,56H23.589l-4.445-8,.555-1,3.89-7h8.822l3.48,6.263A7.654,7.654,0,0,0,34.9,49.368Zm2.092,2v-.01a5.733,5.733,0,0,1-.112-1.634A5.86,5.86,0,0,1,37,48.906c.024-.109.052-.218.082-.325a5.674,5.674,0,0,1,.268-.754c.044-.1.094-.2.144-.3a5.718,5.718,0,0,1,9.028-1.541l-8.48,7.632A5.659,5.659,0,0,1,36.991,51.371Zm2.424,3.7,8.478-7.629,2.045,2.2L41.555,57.43ZM50.253,58.53a5.634,5.634,0,0,1-.876.642c-.1.06-.206.1-.308.154a5.639,5.639,0,0,1-.647.3c-.128.047-.258.078-.388.116a5.809,5.809,0,0,1-.619.15c-.141.025-.282.038-.424.052a5.65,5.65,0,0,1-.61.03c-.144,0-.288-.008-.432-.02a5.847,5.847,0,0,1-.6-.084c-.14-.027-.28-.054-.418-.091a5.869,5.869,0,0,1-.6-.2c-.128-.05-.257-.094-.381-.154a5.546,5.546,0,0,1-.6-.345c-.1-.066-.211-.121-.31-.194-.02-.014-.035-.033-.054-.048l8.25-7.661c.01.015.021.029.03.044a5.607,5.607,0,0,1,.363.668c.024.052.045.105.068.158a5.9,5.9,0,0,1,.231.65c.01.035.023.069.032.1a5.647,5.647,0,0,1,.143.755c.008.061.013.122.019.183a5.836,5.836,0,0,1,.026.8A5.691,5.691,0,0,1,50.253,58.53Zm8.886-9.15a1.969,1.969,0,0,1-1.81.259l-4.683-1.928,4.5-1.823a2.019,2.019,0,0,1,1.993,3.492Z"/><path d="M43.771,44.949a1.6,1.6,0,0,0-2.249,0,1.536,1.536,0,0,0-.376,1.021,1.5,1.5,0,0,0,3,0A1.533,1.533,0,0,0,43.771,44.949ZM42.646,46.47a.471.471,0,0,1-.5-.5.537.537,0,0,1,.125-.357.563.563,0,0,1,.752,0,.535.535,0,0,1,.123.355A.471.471,0,0,1,42.646,46.47Z"/><text x="0" y="79" fill="#000000" font-size="5px" font-weight="bold" font-family="'Helvetica Neue', Helvetica, Arial-Unicode, Arial, Sans-serif">Created by Nithinan Tatah</text><text x="0" y="84" fill="#000000" font-size="5px" font-weight="bold" font-family="'Helvetica Neue', Helvetica, Arial-Unicode, Arial, Sans-serif">from the Noun Project</text></svg>