<svg xmlns="http://www.w3.org/2000/svg" xmlns:xlink="http://www.w3.org/1999/xlink" version="1.1" x="0px" y="0px" viewBox="0 0 100 125" style="enable-background:new 0 0 100 100;" xml:space="preserve"><path d="M30.149,21.449c-7.769,0-14.089,6.32-14.089,14.089v18.451c0,0.553,0.447,1,1,1c0.746,0,1.071,0.255,1.564,0.641  c0.607,0.474,1.362,1.064,2.797,1.064s2.189-0.591,2.797-1.064c0.493-0.386,0.818-0.641,1.564-0.641s1.072,0.255,1.565,0.641  c0.607,0.475,1.362,1.064,2.798,1.064c1.435,0,2.189-0.59,2.797-1.064c0.493-0.386,0.819-0.641,1.565-0.641s1.072,0.255,1.565,0.641  c0.607,0.474,1.363,1.064,2.799,1.064s2.191-0.59,2.798-1.064c0.494-0.386,0.82-0.641,1.567-0.641c0.553,0,1-0.447,1-1V35.538  C44.238,27.77,37.918,21.449,30.149,21.449z M42.238,53.099c-0.822,0.192-1.351,0.605-1.798,0.955  c-0.494,0.386-0.82,0.641-1.567,0.641s-1.073-0.255-1.567-0.641c-0.606-0.475-1.362-1.064-2.797-1.064  c-1.436,0-2.19,0.591-2.798,1.064c-0.493,0.386-0.818,0.641-1.564,0.641s-1.072-0.255-1.565-0.641  c-0.607-0.475-1.362-1.064-2.798-1.064c-1.435,0-2.189,0.591-2.797,1.064c-0.493,0.386-0.818,0.641-1.564,0.641  s-1.071-0.255-1.564-0.641c-0.447-0.35-0.976-0.762-1.797-0.955V35.538c0-6.666,5.423-12.089,12.089-12.089  s12.089,5.423,12.089,12.089V53.099z"/><path d="M30.149,40.873c-1.989,0-3.608,1.906-3.608,4.25s1.619,4.25,3.608,4.25s3.608-1.906,3.608-4.25S32.139,40.873,30.149,40.873  z M30.149,47.373c-0.872,0-1.608-1.03-1.608-2.25s0.736-2.25,1.608-2.25s1.608,1.03,1.608,2.25S31.021,47.373,30.149,47.373z"/><path d="M27.818,35.27c0-1.814-1.476-3.29-3.29-3.29s-3.29,1.476-3.29,3.29c0,0.553,0.447,1,1,1s1-0.447,1-1  c0-0.711,0.579-1.29,1.29-1.29s1.29,0.579,1.29,1.29c0,0.553,0.447,1,1,1S27.818,35.822,27.818,35.27z"/><path d="M35.771,31.979c-1.814,0-3.29,1.476-3.29,3.29c0,0.553,0.447,1,1,1s1-0.447,1-1c0-0.711,0.579-1.29,1.29-1.29  s1.29,0.579,1.29,1.29c0,0.553,0.447,1,1,1s1-0.447,1-1C39.061,33.455,37.585,31.979,35.771,31.979z"/><path d="M88.069,35.863l-8.475-4.572c0.378-1.057,0.343-2.2-0.116-3.229c-0.474-1.06-1.33-1.872-2.414-2.286l-9.061-3.468  l0.038-0.189c0.469-2.348-1.061-4.64-3.41-5.108L50.93,14.279C50.894,11.914,48.966,10,46.593,10H14.344  C11.948,10,10,11.948,10,14.344v52.142c0,2.395,1.948,4.343,4.344,4.343h10.155c0.052,0.031,0.094,0.074,0.152,0.096l4.616,1.755  c0.386,0.576,0.904,1.067,1.544,1.412L59.193,89.4c0.653,0.353,1.358,0.521,2.055,0.521c1.546,0,3.046-0.827,3.83-2.281  l24.753-45.892C90.968,39.64,90.178,37,88.069,35.863z M76.35,27.644c0.585,0.225,1.047,0.662,1.303,1.234  c0.255,0.571,0.272,1.208,0.049,1.793L59.061,79.366c-0.225,0.585-0.662,1.047-1.234,1.303c-0.57,0.254-1.208,0.272-1.795,0.048  l-18.775-7.139l15.481,3.086c0.286,0.058,0.573,0.086,0.858,0.086c0.85,0,1.68-0.25,2.401-0.732  c0.966-0.644,1.622-1.625,1.849-2.764l9.761-48.957L76.35,27.644z M65.73,19.97c0.348,0.521,0.472,1.145,0.35,1.759L55.885,72.863  c-0.123,0.614-0.477,1.144-0.997,1.491c-0.521,0.347-1.148,0.469-1.76,0.349l-19.437-3.875h12.901c2.396,0,4.344-1.948,4.344-4.343  V16.319l13.304,2.653C64.854,19.095,65.383,19.448,65.73,19.97z M12,66.485V14.344C12,13.052,13.052,12,14.344,12h32.249  c1.292,0,2.344,1.052,2.344,2.344v52.142c0,1.292-1.052,2.343-2.344,2.343H14.344C13.052,68.828,12,67.777,12,66.485z   M88.071,40.799L63.318,86.69c-0.614,1.136-2.04,1.564-3.176,0.95L39.9,76.722l15.418,5.862c0.505,0.193,1.029,0.29,1.554,0.29  c0.603,0,1.203-0.127,1.77-0.38c1.06-0.474,1.872-1.33,2.286-2.414l17.954-46.902l8.238,4.444  C88.258,38.237,88.685,39.661,88.071,40.799z"/><text x="0" y="115" fill="#000000" font-size="5px" font-weight="bold" font-family="'Helvetica Neue', Helvetica, Arial-Unicode, Arial, Sans-serif">Created by Made</text><text x="0" y="120" fill="#000000" font-size="5px" font-weight="bold" font-family="'Helvetica Neue', Helvetica, Arial-Unicode, Arial, Sans-serif">from the Noun Project</text></svg>