<svg xmlns="http://www.w3.org/2000/svg" data-name="Layer 1" viewBox="0 -20 100 145" x="0px" y="0px"><title>Document-Icons</title><path d="M19.59,79.89H42a9.59,9.59,0,0,0,4,2.73H19.59V79.89Zm0-22.88h27c0-.37,0-0.75,0-1.11,0-.55.12-1.08,0.2-1.62H19.59V57Zm0,12.47H39.94a22.36,22.36,0,0,1,1-2.73H19.59v2.73Zm0-26.11H51.43A23.28,23.28,0,0,1,54,40.64H19.59v2.73ZM77.47,81.11c1.46-1,3.07-2.47,5.16-4.31V89.44a7.14,7.14,0,0,1-7.13,7.13H14.93A7.14,7.14,0,0,1,7.8,89.44V32.2h0L35.89,3.43V3.64l0-.21H75.5a7.14,7.14,0,0,1,7.13,7.13v20a35.18,35.18,0,0,0-4.43,1.6l-0.73.33V10.56a2,2,0,0,0-2-2H35.89V32.2H13V89.44a2,2,0,0,0,2,2H50.18l0,0.06,0.18-.06H75.5a2,2,0,0,0,2-2V81.11Zm-59.94-53H31.79V13.5Zm26.71-11H70.89v10.5H44.24V17.14ZM47,24.9H68.16v-5H47v5ZM90.38,47.67c-0.63,1-1.33,2.06-2.1,3.12A19.85,19.85,0,0,1,60.21,75c-4.44,2.34-8.58,3.79-11.76,3.79A5.89,5.89,0,0,1,43.77,77c-3.13-3.62.1-10.83,6-18.26a20.13,20.13,0,0,1,0-2.62,19.83,19.83,0,0,1,23.77-18,54.74,54.74,0,0,1,5.88-3c6.35-2.76,10.88-2.87,13.09-.31h0C94.78,37.31,94,41.78,90.38,47.67ZM57.19,73a19.85,19.85,0,0,1-6.66-10C46.27,68.9,44.88,73.38,46.2,74.9S51.48,75.79,57.19,73Zm3.16-1.66a80.48,80.48,0,0,0,11.17-7.81,6.14,6.14,0,0,1,8.67-8.08c1.62-1.72,3.11-3.44,4.42-5.13a16.71,16.71,0,0,0-2.4-3.68c-0.14-.16-0.29-0.31-0.43-0.46A16.64,16.64,0,0,0,55.67,66.66h0A16.48,16.48,0,0,0,60.34,71.36ZM77,57a3.75,3.75,0,1,0,3.75,3.75A3.76,3.76,0,0,0,77,57Zm8.89-3.07c-1.07,1.29-2.23,2.6-3.46,3.9a6.15,6.15,0,0,1-8.72,8.1,88.31,88.31,0,0,1-10,7.19,16.7,16.7,0,0,0,4.8,1.07A16.64,16.64,0,0,0,86.22,58.75,16.7,16.7,0,0,0,85.86,53.89Zm4.28-17h0a3.06,3.06,0,0,0-2.34-.72A18.82,18.82,0,0,0,80.75,38c-1,.42-2,0.92-3,1.45a19.73,19.73,0,0,1,8.93,8c0.33-.49.65-1,1-1.46C90.84,40.82,91,37.84,90.14,36.86Z"/></svg>
