<svg xmlns="http://www.w3.org/2000/svg" data-name="Layer 1" viewBox="0 0 64 80" x="0px" y="0px"><title>globe-sphere-world-map-global-round-circle</title><path d="M32,2A30,30,0,1,0,62,32,30,30,0,0,0,32,2ZM54.23,15h-9.8A24.48,24.48,0,0,0,38.36,4.74,28,28,0,0,1,54.23,15ZM4,33H17A54.84,54.84,0,0,0,19,47H8.38A27.77,27.77,0,0,1,4,33ZM33,15V4.1c3.71.64,7,4.8,9.24,10.9Zm9.9,2A52.12,52.12,0,0,1,45,31H33V17ZM31,4.1V15H21.76C24,8.9,27.29,4.74,31,4.1ZM31,17V31H19A52.12,52.12,0,0,1,21.1,17ZM17,31H4A27.77,27.77,0,0,1,8.38,17H19A54.84,54.84,0,0,0,17,31Zm2,2H31V47H21.1A52.12,52.12,0,0,1,19,33ZM31,49V59.9c-3.71-.64-7-4.8-9.24-10.9Zm2,10.9V49h9.24C40,55.1,36.71,59.26,33,59.9ZM33,47V33H45A52.12,52.12,0,0,1,42.9,47ZM47,33H60a27.86,27.86,0,0,1-4.34,14H45.05A54.84,54.84,0,0,0,47,33Zm0-2a54.84,54.84,0,0,0-1.94-14H55.63A27.86,27.86,0,0,1,60,31ZM25.64,4.74A24.48,24.48,0,0,0,19.57,15H9.77A28,28,0,0,1,25.64,4.74ZM9.77,49h9.8a24.48,24.48,0,0,0,6.07,10.26A28,28,0,0,1,9.77,49ZM38.36,59.26A24.48,24.48,0,0,0,44.43,49h9.8A28,28,0,0,1,38.36,59.26Z"/></svg>
