<svg xmlns="http://www.w3.org/2000/svg" xmlns:xlink="http://www.w3.org/1999/xlink" version="1.1" x="0px" y="0px" viewBox="0 0 100 125" enable-background="new 0 0 100 100" xml:space="preserve"><g><path d="M56.2,51.7c-0.1-0.5-0.2-3.5-0.1-5.2c0-0.6,0.3-6.9,1.1-9.1c0.2-0.6,0.4-1.1,0.7-1.7c2.1-5.9,9-6.6,14.4-6.3   c0.5,0,1,0.1,1.5,0.1c1.5,0.1,2.9,0.4,4.4,0.9c0.5,0.1,1,0.3,1.5,0.5c1.5,0.5,2.9,1.2,4.2,2.2c0.5,0.5,0.5,1.7-0.2,1.5   c-1.2-0.2-2.4-0.5-3.5-0.8c-0.6-0.1-1.2-0.3-1.8-0.4c-1.3-0.4-2.7-0.7-4.1-0.8c-0.5,0-0.9-0.1-1.4-0.1c-4.9-0.7-9.9,2.1-12,6.7   c-0.3,0.5-0.5,1.1-0.8,1.7c-0.7,1.7-1.1,3.5-1.4,5.2c-0.1,0.5-0.2,1-0.2,1.5c-0.2,1.5-0.3,3-0.4,4.5c0,0.5-0.5,0.7-0.9,0.7   C56.6,52.6,56.3,52.2,56.2,51.7z M21.3,36.9c2.5-1.6,5.2-2.9,8-3.6c0.6-0.1,3-0.6,3.6-0.7c4.4-0.3,8.7,0.9,12.4,3.4   c0.9-5.1-7.7-7.3-11.9-7.2c-0.9,0-2.4,0-5,0.8c-3.3,1.1-6.4,2.9-8.1,6.4c-0.1,0.4-0.2,0.8-0.2,1.2c-0.2,0,0.5,0,0.7-0.2   C21,37,21.1,36.9,21.3,36.9z M82.3,41.6c-0.1,0.1-0.2,0.2-0.3,0.3c-1.3,0.3-2.4,2-3.6,2.8c-3,2-6.5,0.3-6.6,0.2   c-1.4-1.1-2.6-3.2-1.5-4.5c-1.5,0.2-3,0.9-4.1,1.8c-0.4,0.3-1,0.4-1.4,0c-0.7-0.5,0-1.5,0-1.5c0.6-1,2.4-2,2.8-2.2   c2.5-1.2,4-1.4,4.6-1.5c1.7-0.3,8.6,0.1,10,3.3l0.1,0.2C82.6,40.9,82.6,41.3,82.3,41.6z M79.1,40.7c0-0.1-2.2-0.9-3.3-1   c-0.6,0-3-0.1-3,0.4c-0.2,1,0.9,2.1,2.8,2.3C77.6,42.6,79.1,41.2,79.1,40.7z M43.1,41.7c-0.1,0.6-0.3,0.6-0.6,0.8   c-0.3,0.1-0.5,0.1-0.8,0.2c-0.2,0.1-1.5,0.7-1.7,0.9c-0.5,0.5-0.8,0.9-1.4,1.4c-0.1,0.1-0.2,0.2-0.3,0.2c-1.8,1.3-4.8,1.3-6.9,0   c-0.1-0.1-0.2-0.1-0.2-0.2s-0.1-0.2-0.2-0.2c-0.6-0.7-0.8-1.3-0.8-2.4c0-0.3,0.1-0.7,0.2-1c0.1-0.2,0.2-0.5,0-0.4   c-0.6,0.2-0.8,0.2-1.2,0.4c-1.5,0.5-4.2,1.6-5,0.7c-0.7-0.9,0.5-1.6,0.8-1.9c1.5-1.3,4.5-2.5,7.5-2.8c0.5,0,0.9-0.1,1.3-0.1   c0.5,0,1,0.1,1.5,0.1c1.9,0.3,4.4,1,6,2.2c0.5,0.4,0.9,0.8,1.3,1.4C42.9,41.1,43.1,41.4,43.1,41.7z M33.3,40.5   c-0.2,0.5,1,2,1.7,2.2c0.3,0.1,1.2,0.3,2.1,0.1c1.1-0.2,2.7-1.2,2.5-1.5C37.7,39.2,33.6,40,33.3,40.5z M58.2,61   c-0.2-0.3-0.2-0.5-0.5-0.8C55,64.6,51.4,64,51.1,64c-2.1,0-3.8-2.5-4.8-2c-2,0.7,1,3.5,2.2,4.4c0.3,0.2,0.6,0.3,0.9,0.5   c1,0.4,2,0.6,3,0.5c0.3,0,0.6,0,1-0.1c1.3-0.1,2.5-0.6,3.4-1.3c0.3-0.2,0.5-0.4,0.8-0.7c1.1-0.9,1.1-2.6,0.6-4.2   C58.2,61.1,58.2,61,58.2,61z M40.5,72.7C40,72.7,39,72.7,39,72.9c0.2,1.7,1.5,3.2,3.5,3.4c0.2,0,0.4,0,0.5,0c0.2,0,0.5,0,0.7-0.1   c0.2,0,0.5-0.1,0.7-0.1c2-0.5,4-1.7,5.7,0c0.3,0.1,0.6,0.2,0.9,0.3s0.6,0.1,0.9,0.1c0.6,0,1.2,0,1.7-0.2c0.4-0.1,0.7-0.3,1.1-0.5   c0.3-0.2,0.6-0.4,0.9-0.7c0.3-0.3,0.6-0.5,1-0.7c0.3-0.2,0.7-0.3,1.1-0.4c0.4,0,0.8,0,1.2,0.3c0.2,0.1,0.3,0.1,0.5,0.2   s0.3,0.1,0.5,0.2c0.1,0.1,0.3,0.1,0.4,0.2c0.2,0.1,0.3,0.2,0.5,0.2c0.2,0.1,0.3,0.1,0.5,0.2c0.2,0.1,0.3,0.1,0.5,0.2   c2,0.8,4.7-0.2,5.2-2.4c-2-0.2-3.7,0.7-5.4-0.6c-0.4-0.3-0.8-0.5-1.1-0.6c-1.2-0.9-2.5-0.9-3-0.9c-1.2,0.1-2,1.1-3.2,1.4   c-0.3,0-0.6,0-0.9,0c-0.3,0-0.6,0-0.9,0c-3.4-1.2-6.6-0.5-9.8,0.9c-0.2,0-0.4-0.1-0.6-0.1c-0.4-0.1-0.7-0.2-1-0.4   C40.9,72.9,40.7,72.8,40.5,72.7z M47.7,79c-0.4,0.4-0.7,0.9-0.2,1.4c0.2,0.2,0.3,0.4,0.5,0.6s0.4,0.4,0.6,0.6   c2.2,2.2,7.4,1.7,9.3-0.6c0.2-0.2,0.4-0.5,0.5-0.7c0.2-0.2,0.4-0.5,0.6-0.7c0.2-0.2,0.2-0.7-0.2-1c-0.9-0.2-1.6,0.1-2.2,0.6   c-0.2,0.2-0.4,0.3-0.6,0.5c-1.8,1.6-6.9-0.1-7.4-0.6C48.2,78.9,47.9,78.9,47.7,79z M97.2,50C97.2,76,76,97.2,50,97.2   C24,97.2,2.8,76,2.8,50C2.8,24,24,2.8,50,2.8C76,2.8,97.2,24,97.2,50z M33.1,8.2l3,0.4c2.5-0.8,4-1.7,6.5-2.3c0,0-2.8-0.5-3.3-0.5   C38.5,5.9,35.2,7.1,33.1,8.2z M24.1,13.6h3.5c1.5-1,3.1-2,4.7-2.8h-3.7C27.1,11.6,25.6,12.5,24.1,13.6z M17.6,19.2H21   c1-1,2-1.9,3-2.8h-3.4C19.5,17.3,18.5,18.2,17.6,19.2z M13,24.9h3.3c0.7-1,1.4-1.9,2.1-2.8h-1h-0.1h-0.1h-2.2   C14.4,23,13.7,23.9,13,24.9z M9.7,30.6H13c0.5-1,1-1.9,1.5-2.8h-3.3C10.7,28.7,10.2,29.6,9.7,30.6z M7.4,36.3h3.3   c0.3-1,0.7-1.9,1-2.8H8.5C8.1,34.4,7.8,35.3,7.4,36.3z M6,42h3.2c0.2-1,0.4-1.9,0.6-2.8H6.6C6.4,40,6.2,41,6,42z M5.3,47.6h3.2   c0.1-1,0.2-1.9,0.3-2.8H5.6C5.5,45.7,5.4,46.7,5.3,47.6z M5.4,53.3h3.1c0-0.9-0.1-1.7-0.1-2.6c0-0.1,0-0.2,0-0.2H5.3   C5.3,51.4,5.3,52.4,5.4,53.3z M6.2,59h2.9c-0.2-0.9-0.3-1.9-0.4-2.8h-3C5.8,57.1,6,58.1,6.2,59z M7.8,64.7h2.8   c-0.3-0.9-0.6-1.9-0.8-2.8H6.9C7.1,62.8,7.4,63.7,7.8,64.7z M10.2,70.4h2.6c-0.4-0.9-0.9-1.9-1.2-2.8H8.9   C9.3,68.5,9.7,69.4,10.2,70.4z M13.7,76H16c-0.6-0.9-1.2-1.9-1.7-2.8h-2.5C12.4,74.2,13,75.1,13.7,76z M20.5,81.7   c-0.8-0.9-1.7-1.9-2.4-2.8h-0.6h-0.1h-0.1h-1.4c0.8,1,1.7,1.9,2.6,2.8H20.5z M26.9,87.4c-1.2-0.9-2.4-1.8-3.5-2.8h-1.8   c1.2,1,2.5,2,3.9,2.8H26.9z M36.9,92.7c-1.9-0.7-3.7-1.6-5.5-2.5h-0.9C32.5,91.2,34.7,92.1,36.9,92.7z M93.7,50   c0-23.9-18.1-43.3-40.3-43.3S13.1,26.1,13.1,50s18.1,43.3,40.3,43.3S93.7,73.9,93.7,50z"/></g><text x="0" y="115" fill="#000000" font-size="5px" font-weight="bold" font-family="'Helvetica Neue', Helvetica, Arial-Unicode, Arial, Sans-serif">Created by Amanda Wray</text><text x="0" y="120" fill="#000000" font-size="5px" font-weight="bold" font-family="'Helvetica Neue', Helvetica, Arial-Unicode, Arial, Sans-serif">from the Noun Project</text></svg>