<svg xmlns="http://www.w3.org/2000/svg" data-name="Layer 1" viewBox="0 0 64 80" x="0px" y="0px"><title>spans-worldwide-spread-bridge-international-global-cover</title><path d="M19.519,47.6q.539.432,1.1.825c.116.081.232.163.35.242.406.269.824.52,1.248.758.135.077.268.155.405.228.442.235.893.45,1.35.651.155.068.309.136.465.2q.7.285,1.415.518c.151.049.3.095.455.14.5.15,1.012.284,1.527.394.122.025.244.046.367.07.559.109,1.124.2,1.694.259.065.007.132.01.2.017.63.06,1.265.1,1.905.1s1.275-.036,1.905-.1c.065-.007.132-.01.2-.017.57-.06,1.135-.15,1.694-.259.123-.024.245-.045.367-.07.515-.11,1.023-.244,1.527-.394.152-.045.3-.091.455-.14q.718-.233,1.415-.518c.156-.064.31-.132.465-.2.457-.2.908-.416,1.35-.651.137-.073.27-.151.405-.228.424-.238.842-.489,1.248-.758.118-.079.234-.161.35-.242q.566-.393,1.1-.825c.111-.089.223-.173.332-.264.38-.318.745-.655,1.1-1,.127-.123.253-.246.377-.372.3-.3.587-.616.866-.94.013-.015.02-.033.032-.048a19.908,19.908,0,0,0,0-25.95c-.012-.015-.019-.033-.032-.048-.279-.324-.57-.636-.866-.94-.124-.126-.25-.249-.377-.372-.358-.348-.723-.685-1.1-1-.109-.091-.221-.175-.332-.264q-.539-.432-1.1-.825c-.116-.081-.232-.163-.35-.242-.406-.269-.824-.52-1.248-.758-.135-.077-.268-.155-.405-.228-.442-.235-.893-.45-1.35-.651-.155-.068-.309-.136-.465-.2q-.7-.285-1.415-.518c-.151-.049-.3-.1-.455-.14-.5-.15-1.012-.284-1.527-.394-.122-.025-.244-.046-.367-.07-.559-.109-1.124-.2-1.694-.259-.065-.007-.132-.01-.2-.017-.63-.06-1.265-.1-1.905-.1s-1.275.036-1.905.1c-.065.007-.132.01-.2.017-.57.06-1.135.15-1.694.259-.123.024-.245.045-.367.07-.515.11-1.023.244-1.527.394-.152.045-.3.091-.455.14q-.718.232-1.415.518c-.156.064-.31.132-.465.2-.457.2-.908.416-1.35.651-.137.073-.27.151-.405.228-.424.238-.842.489-1.248.758-.118.079-.234.161-.35.242q-.566.393-1.1.825c-.111.089-.223.173-.332.264-.38.318-.745.655-1.1,1-.127.123-.253.246-.377.372-.3.3-.587.616-.866.94-.013.015-.02.033-.032.048a19.908,19.908,0,0,0,0,25.95c.012.015.019.033.032.048.279.324.57.636.866.94.124.126.25.249.377.372.358.348.723.685,1.1,1C19.3,47.429,19.408,47.513,19.519,47.6Zm-5.427-17.41c.019-.2.06-.389.086-.585.053-.393.1-.787.179-1.172.047-.229.114-.451.169-.677.083-.342.161-.687.263-1.021.072-.236.164-.463.246-.695.11-.313.215-.629.342-.933.1-.236.214-.461.321-.692.135-.289.266-.58.415-.861.122-.228.259-.446.39-.668.159-.268.315-.539.486-.8.144-.217.3-.424.455-.634.179-.246.355-.494.546-.731,1.47.294,3.015.542,4.627.735A32.937,32.937,0,0,0,21.027,31H14.051C14.066,30.731,14.065,30.458,14.092,30.192Zm24.7-14.852c.356.145.7.313,1.048.481.17.083.344.159.512.247.337.177.664.375.989.573.164.1.332.194.492.3.32.21.629.438.936.669.151.113.306.222.454.34.308.246.6.511.9.779.1.089.2.175.293.267-1.2.211-2.471.378-3.765.524A16.951,16.951,0,0,0,37.856,15c.132.046.264.09.395.138C38.43,15.209,38.613,15.267,38.789,15.34ZM49.949,31H42.973a32.937,32.937,0,0,0-1.59-9.541c1.612-.193,3.157-.441,4.627-.735A17.9,17.9,0,0,1,49.949,31Zm-.109,3.276q-.06.468-.142.93-.075.409-.166.812c-.07.3-.147.6-.232.9-.075.263-.153.524-.24.781-.1.292-.2.579-.316.864-.1.251-.2.5-.31.747-.125.279-.259.552-.4.823-.121.238-.244.476-.375.708-.151.265-.311.523-.474.78-.143.223-.284.447-.436.663-.174.25-.36.491-.547.731-.068.088-.137.174-.206.26q-2.2-.439-4.616-.733A32.937,32.937,0,0,0,42.973,33h6.976c-.008.145-.01.292-.022.437C49.905,33.718,49.875,34,49.84,34.276ZM26.144,15a16.951,16.951,0,0,0-2.789,4.515c-1.292-.146-2.558-.312-3.76-.523l.1-.1c.062-.058.126-.114.188-.171.247-.225.5-.445.754-.655.116-.095.234-.189.352-.281.081-.063.164-.122.245-.183.25-.187.5-.37.76-.543.129-.087.259-.173.391-.256.091-.058.184-.112.277-.169.256-.156.516-.308.78-.452.142-.077.285-.154.429-.227.1-.049.2-.094.292-.141.264-.129.53-.252.8-.368.159-.067.318-.135.479-.2.1-.04.2-.075.307-.113C25.88,15.094,26.012,15.05,26.144,15ZM31,14.125V19.98c-1.877-.022-3.727-.095-5.511-.241C26.923,16.7,28.859,14.624,31,14.125ZM44.117,45.272c-.293.268-.589.533-.9.779-.148.118-.3.227-.454.34-.307.231-.616.459-.936.669-.16.1-.328.2-.492.3-.325.2-.652.4-.989.573-.168.088-.342.164-.512.247-.346.168-.692.336-1.048.481-.176.073-.359.131-.538.2-.131.048-.263.092-.395.138a16.951,16.951,0,0,0,2.789-4.515c1.294.146,2.562.313,3.765.524C44.315,45.1,44.214,45.183,44.117,45.272ZM33,49.875V44.02c1.877.022,3.727.095,5.511.241C37.077,47.3,35.141,49.376,33,49.875Zm0-7.864V33h7.974a30.661,30.661,0,0,1-1.664,9.326C37.273,42.141,35.157,42.037,33,42.011ZM33,31V21.989c2.157-.026,4.273-.13,6.31-.315A30.661,30.661,0,0,1,40.974,31Zm0-11.02V14.125c2.141.5,4.077,2.577,5.511,5.614C36.727,19.885,34.877,19.958,33,19.98Zm-2,2.009V31H23.026a30.661,30.661,0,0,1,1.664-9.326C26.727,21.859,28.843,21.963,31,21.989ZM31,33v9.011c-2.157.026-4.273.13-6.31.315A30.661,30.661,0,0,1,23.026,33Zm0,11.02v5.855c-2.141-.5-4.077-2.577-5.511-5.614C27.273,44.115,29.123,44.042,31,44.02ZM26.144,49c-.132-.046-.264-.09-.395-.138-.1-.038-.206-.073-.307-.113-.161-.063-.32-.131-.479-.2-.27-.116-.536-.239-.8-.368-.1-.047-.2-.092-.292-.141-.144-.073-.287-.15-.429-.227-.264-.144-.524-.3-.78-.452-.093-.057-.186-.111-.277-.169-.132-.083-.262-.169-.391-.256-.258-.173-.51-.356-.76-.543-.081-.061-.164-.12-.245-.183-.118-.092-.236-.186-.352-.281-.257-.21-.507-.43-.754-.655-.062-.057-.126-.113-.188-.171l-.1-.1c1.2-.211,2.468-.377,3.76-.523A16.951,16.951,0,0,0,26.144,49ZM21.027,33a32.937,32.937,0,0,0,1.59,9.541q-2.412.29-4.616.733c-.069-.086-.138-.172-.206-.26-.12-.154-.236-.311-.351-.469-.1-.133-.2-.266-.289-.4-.117-.172-.231-.347-.343-.523s-.208-.337-.309-.508c-.077-.131-.155-.261-.23-.394-.107-.193-.21-.389-.31-.586-.092-.181-.179-.365-.265-.549-.058-.125-.118-.248-.173-.373-.094-.214-.183-.43-.269-.648-.078-.2-.15-.4-.221-.6-.039-.111-.081-.22-.118-.332q-.115-.352-.217-.709c-.064-.223-.119-.449-.174-.675-.022-.09-.046-.178-.067-.269-.057-.254-.11-.509-.157-.767s-.087-.54-.124-.813c-.006-.044-.014-.087-.019-.131q-.053-.41-.086-.825c-.012-.145-.014-.292-.022-.437Z"/><path d="M37.184,4.479l-.368,1.966A26.112,26.112,0,0,1,51.38,14.667l1.49-1.334A28.118,28.118,0,0,0,37.184,4.479Z"/><path d="M26.816,4.479A28.122,28.122,0,0,0,11.26,13.19l1.48,1.344A26.121,26.121,0,0,1,27.184,6.445Z"/><path d="M7.479,40.667a26.134,26.134,0,0,1,0-17.334l-1.885-.666a28.12,28.12,0,0,0,0,18.666Z"/><path d="M12.3,51.894a27.852,27.852,0,0,0,14.52,7.627l.368-1.966A25.851,25.851,0,0,1,13.7,50.473Z"/><path d="M50.474,50.3a25.931,25.931,0,0,1-12.7,7.06l.444,1.95a27.929,27.929,0,0,0,13.672-7.6Z"/><path d="M58,32a25.943,25.943,0,0,1-1.479,8.667l1.885.666a28.158,28.158,0,0,0,.644-16.592l-1.932.518A26.084,26.084,0,0,1,58,32Z"/><path d="M54,16a1,1,0,0,0-1,1v4a1,1,0,0,0,1,1h4a1,1,0,0,0,1-1V17a1,1,0,0,0-1-1Zm3,4H55V18h2Z"/><path d="M34,8a1,1,0,0,0,1-1V3a1,1,0,0,0-1-1H30a1,1,0,0,0-1,1V7a1,1,0,0,0,1,1ZM31,4h2V6H31Z"/><path d="M7,21h4a1,1,0,0,0,1-1V16a1,1,0,0,0-1-1H7a1,1,0,0,0-1,1v4A1,1,0,0,0,7,21Zm1-4h2v2H8Z"/><path d="M11,43H7a1,1,0,0,0-1,1v4a1,1,0,0,0,1,1h4a1,1,0,0,0,1-1V44A1,1,0,0,0,11,43Zm-1,4H8V45h2Z"/><path d="M30,62h4a1,1,0,0,0,1-1V57a1,1,0,0,0-1-1H30a1,1,0,0,0-1,1v4A1,1,0,0,0,30,62Zm1-4h2v2H31Z"/><path d="M52,48a1,1,0,0,0,1,1h4a1,1,0,0,0,1-1V44a1,1,0,0,0-1-1H53a1,1,0,0,0-1,1Zm2-3h2v2H54Z"/><text x="0" y="79" fill="#000000" font-size="5px" font-weight="bold" font-family="'Helvetica Neue', Helvetica, Arial-Unicode, Arial, Sans-serif">Created by Nithinan Tatah</text><text x="0" y="84" fill="#000000" font-size="5px" font-weight="bold" font-family="'Helvetica Neue', Helvetica, Arial-Unicode, Arial, Sans-serif">from the Noun Project</text></svg>