<svg xmlns="http://www.w3.org/2000/svg" data-name="Layer 1" viewBox="0 0 64 80" x="0px" y="0px"><title>map-survey-location-show-position-direction-symbol</title><path d="M61,2H3A1,1,0,0,0,2,3V61a1,1,0,0,0,1,1H61a1,1,0,0,0,1-1V3A1,1,0,0,0,61,2ZM60,48H32.5A8.51,8.51,0,0,1,24,39.5c0-3.92,1.83-8.5,7-8.5h3a9,9,0,0,0,0-18H32c-5.49,0-7.69-4.48-8-9H60ZM4,60V4H22c.35,6.71,4.18,11,10,11h2a7,7,0,0,1,0,14H31c-5.38,0-9,4.22-9,10.5A10.51,10.51,0,0,0,32.5,50H60V60Z"/><path d="M16,11a5,5,0,1,0-5,5A5,5,0,0,0,16,11Zm-5,3a3,3,0,1,1,3-3A3,3,0,0,1,11,14Z"/><path d="M29,25h6a1,1,0,0,0,.89-1.45l-3-6a1,1,0,0,0-1.78,0l-3,6A1,1,0,0,0,29,25Zm3-4.76L33.38,23H30.62Z"/><path d="M39,36H33a1,1,0,0,0-1,1v6a1,1,0,0,0,1,1h6a1,1,0,0,0,1-1V37A1,1,0,0,0,39,36Zm-1,6H34V38h4Z"/><polygon points="55 28 53 28 53 31 50 31 50 33 53 33 53 36 55 36 55 33 58 33 58 31 55 31 55 28"/><path d="M48.11,15.45A1,1,0,0,0,49,16h4a1,1,0,0,0,.89-.55l2-4a1,1,0,0,0,0-.9l-2-4A1,1,0,0,0,53,6H49a1,1,0,0,0-.89.55l-2,4a1,1,0,0,0,0,.9ZM49.62,8h2.76l1.5,3-1.5,3H49.62l-1.5-3Z"/><rect x="6" y="21" width="4" height="2"/><rect x="12" y="21" width="4" height="2"/><rect x="18" y="21" width="4" height="2"/><rect x="20" y="25" width="2" height="4"/><rect x="18" y="31" width="4" height="2"/><rect x="14" y="31" width="2" height="4"/><rect x="14" y="37" width="2" height="4"/><rect x="14" y="43" width="2" height="4"/><rect x="14" y="49" width="4" height="2"/><polygon points="24.95 50.29 22.83 52.41 20.71 50.29 19.29 51.71 21.41 53.83 19.29 55.95 20.71 57.36 22.83 55.24 24.95 57.36 26.36 55.95 24.24 53.83 26.36 51.71 24.95 50.29"/><rect x="56" y="53" width="2" height="2"/><rect x="52" y="53" width="2" height="2"/><rect x="48" y="53" width="2" height="2"/><rect x="44" y="53" width="2" height="2"/><rect x="40" y="53" width="2" height="2"/><rect x="36" y="53" width="2" height="2"/><rect x="32" y="53" width="2" height="2"/><rect x="28" y="53" width="2" height="2"/><text x="0" y="79" fill="#000000" font-size="5px" font-weight="bold" font-family="'Helvetica Neue', Helvetica, Arial-Unicode, Arial, Sans-serif">Created by Nithinan Tatah</text><text x="0" y="84" fill="#000000" font-size="5px" font-weight="bold" font-family="'Helvetica Neue', Helvetica, Arial-Unicode, Arial, Sans-serif">from the Noun Project</text></svg>