<svg xmlns="http://www.w3.org/2000/svg" xmlns:xlink="http://www.w3.org/1999/xlink" version="1.1" x="100px" y="100px" viewBox="0 0 100 104" enable-background="new 0 0 100 125" xml:space="preserve"><g><path d="M78.172,23.495H57.297l-3.004-5.252c-1.13-1.976-3.255-3.204-5.545-3.204c-1.102,0-2.189,0.29-3.146,0.837L19.427,30.842   c-1.472,0.842-2.53,2.212-2.979,3.857s-0.232,3.362,0.61,4.835l24.066,42.089c0.799,1.397,2.099,2.409,3.599,2.888   c0.675,0.289,1.418,0.45,2.198,0.45h31.25c3.092,0,5.607-2.516,5.607-5.608v-50.25C83.779,26.011,81.264,23.495,78.172,23.495z    M79.058,49.835l-4.739,3.43l0,0l-1.598,1.156l-3.293,2.383l0.555,1.705c0,0.001,0,0.002,0,0.003l3.138,9.595   c0.011,0.033,0.011,0.068,0.017,0.102c0.021,0.129,0.008,0.26-0.037,0.379c-0.002,0.005-0.005,0.01-0.007,0.015   c-0.047,0.116-0.122,0.222-0.229,0.299c-0.124,0.091-0.271,0.136-0.416,0.136c-0.146,0-0.294-0.046-0.418-0.137l-9.605-7.008   l-9.606,7.008c-0.247,0.182-0.585,0.183-0.834,0.001c-0.249-0.181-0.353-0.501-0.257-0.794l3.025-9.25c0-0.001,0-0.001,0-0.001   l0.668-2.052l-0.016-0.011l-9.615-6.958c-0.248-0.18-0.354-0.5-0.258-0.793c0.095-0.292,0.367-0.489,0.674-0.489   c0,0,0.001,0,0.002,0l10.369,0.02l1.521,0.001l0.053-0.163l3.6-11.15c0.095-0.293,0.366-0.491,0.675-0.491   c0.004,0,0.009,0.003,0.014,0.003l0,0c0.15,0.003,0.293,0.053,0.408,0.139c0.002,0.001,0.004,0.004,0.006,0.005   c0.055,0.042,0.104,0.091,0.146,0.147c0.043,0.059,0.077,0.125,0.101,0.197l3.652,11.314h0.541l1.894-0.003l0,0l1.622-0.004   l7.834-0.015c0,0,0.001,0,0.002,0c0.307,0,0.578,0.197,0.674,0.489C79.411,49.335,79.307,49.655,79.058,49.835z M18.904,38.479   c-0.56-0.979-0.703-2.123-0.404-3.221c0.299-1.098,1.003-2.011,1.982-2.57l26.175-14.966c0.636-0.364,1.358-0.557,2.091-0.557   c1.529,0,2.947,0.818,3.699,2.134l2.399,4.196h-7.925c-3.093,0-5.608,2.516-5.608,5.607v48.566L18.904,38.479z"/><polygon points="56.134,59.188 56.1,59.294 56.1,59.295 53.756,66.461 61.219,61.017 56.627,57.681  "/><polygon points="65.721,49.991 59.126,49.989 57.086,56.263 62.424,60.14 67.761,56.262  "/><polygon points="57.635,49.991 56.615,49.989 56.238,49.989 56.234,49.989 48.398,49.974 55.88,55.388  "/><polygon points="62.424,39.784 59.586,48.573 65.261,48.573  "/><polygon points="63.627,61.017 71.091,66.461 68.22,57.68  "/><polygon points="72.44,49.981 71.233,49.983 67.554,49.991 67.551,49.991 67.24,49.991 67.211,49.991 68.967,55.388 71.878,53.281    71.878,53.281 72.146,53.087 76.448,49.974 72.44,49.981  "/></g></svg>
