<svg xmlns="http://www.w3.org/2000/svg" data-name="Layer 1" fill="#0066cc" fill-opacity=".75" viewBox="0 0 64 80" x="0px" y="0px"><title>global-pin-expand-branch-everywhere-worldwide-universal</title><path d="M61,24.23v0c-.18-.64-.38-1.28-.59-1.9l-.1-.3c-.22-.61-.45-1.21-.7-1.8l-.22-.48c-.18-.4-.36-.79-.56-1.18-.12-.24-.24-.48-.37-.72s-.38-.67-.57-1-.53-.87-.81-1.29l-.3-.45a31,31,0,0,0-2.51-3.18l-.07-.08a29.51,29.51,0,0,0-3-2.89L51,8.83a29.36,29.36,0,0,0-3.16-2.27l-.51-.32-.92-.53-1-.5c-.33-.16-.65-.32-1-.47s-.8-.37-1.21-.53L42.69,4a29.74,29.74,0,0,0-3.76-1.15l-.27-.07A30.41,30.41,0,0,0,32,2,30,30,0,0,0,7.77,14.34l-.07.07-.23.36c-.3.42-.59.84-.86,1.28-.12.19-.25.39-.36.59-.29.47-.55.95-.81,1.44-.12.22-.24.45-.35.68-.26.53-.51,1.06-.74,1.61-.1.22-.18.45-.27.67-.16.41-.31.83-.46,1.25-.08.23-.16.46-.23.69-.19.58-.35,1.16-.49,1.75-.06.22-.11.44-.16.66-.12.53-.22,1.05-.31,1.59,0,.13-.05.27-.07.41-.11.65-.18,1.32-.24,2,0,.17,0,.35,0,.53C2,30.6,2,31.3,2,32s0,1.28.07,1.91a2.45,2.45,0,0,0,0,.27c0,.61.1,1.21.18,1.81a.28.28,0,0,1,0,.09h0A29.61,29.61,0,0,0,6.94,48.46a.36.36,0,0,0,0,.09c.55.84,1.15,1.62,1.77,2.39l.15.18c.28.33.56.66.86,1l.1.11a30,30,0,0,0,8.9,6.69l.32.16.94.43.62.26.83.33.85.3.68.23c.52.16,1,.31,1.56.44l.38.09c.43.11.86.2,1.29.29l.56.1,1.15.18.59.07c.4.05.8.09,1.21.12l.52,0c.58,0,1.16,0,1.74,0s1.15,0,1.71,0l.45,0,1.29-.11.47-.06,1.28-.2.43-.08c.46-.09.91-.18,1.36-.29l.25-.05h0a29.88,29.88,0,0,0,11.53-5.75l.16-.11A29.69,29.69,0,0,0,61,39.78c0-.14.08-.27.11-.41s.12-.5.17-.75.13-.54.18-.81,0-.27.07-.4c.07-.39.14-.77.19-1.16,0,0,0-.09,0-.13A29.49,29.49,0,0,0,62,32a30.08,30.08,0,0,0-1-7.76ZM34,6.29a2,2,0,0,1,.71-1.51,1.94,1.94,0,0,1,1.57-.44c.64.1,1.28.22,1.91.37l.23,0A29.3,29.3,0,0,1,42,5.84l.54.22c.39.15.77.32,1.14.49l.93.45.89.47.86.49.47.29a28.26,28.26,0,0,1,2.95,2.12l.1.08a27.88,27.88,0,0,1,2.83,2.71l.06.07a27.14,27.14,0,0,1,2.35,3l.28.41c.26.4.51.81.76,1.22s.36.62.53.94.23.45.34.67.36.73.53,1.1c.06.15.14.3.2.45.24.55.45,1.11.65,1.68,0,.09.07.18.1.27.2.59.38,1.18.54,1.78v0a1.88,1.88,0,0,1-.34,1.66,2,2,0,0,1-1.59.78h0L47,27A2,2,0,0,1,45,25a4,4,0,0,0-4-4H33a2,2,0,0,1,0-4h3a4,4,0,0,0,0-8,2,2,0,0,1-1.41-.59A2,2,0,0,1,34,7ZM4,32c0-.64,0-1.27.07-1.9,0-.17,0-.34,0-.51,0-.57.11-1.15.2-1.72,0-.11,0-.22.05-.34.08-.52.19-1,.3-1.55l.15-.65c.12-.48.24-.95.39-1.42q.1-.37.24-.75c.13-.38.26-.76.41-1.14s.18-.48.28-.71c.2-.49.41-1,.65-1.46.09-.2.2-.39.3-.59.18-.36.38-.72.58-1.07L8,17.61c.29-.48.59-.94.9-1.4L9,16h3a1,1,0,0,1,1,1,3,3,0,0,0,3,3h3v1h2V20h2a1,1,0,0,1,1,1v3a1,1,0,0,1-1,1H20a3,3,0,0,0-3,3,1,1,0,0,1-1,1H11a3,3,0,0,0-3,3v2a1,1,0,0,1-.3.71A1,1,0,0,1,7,35H7L4.16,35A27,27,0,0,1,4,32ZM19,13a1,1,0,1,1,1,1A1,1,0,0,1,19,13ZM38,59.35l-.12,0c-.36.08-.73.15-1.1.21a3.43,3.43,0,0,1-.34.06c-.39.07-.78.12-1.18.16l-.29,0-1.22.1-.26,0c-.5,0-1,0-1.49,0s-1,0-1.55,0l-.47,0-1.07-.09-.55-.07-1-.14-.59-.11-.9-.18-.61-.15c-.28-.06-.55-.14-.83-.22l-.65-.18c-.24-.07-.47-.16-.71-.24a26.87,26.87,0,0,1-3.19-1.28l-.06,0c-.37-.18-.75-.37-1.11-.57l-.12-.06c-.38-.21-.75-.42-1.11-.65l-.05,0a28.52,28.52,0,0,1-6.17-5.09l0,0-.83-1-.1-.13c-.19-.23-.37-.47-.56-.71H13v1h2V49h1.5a.5.5,0,0,1,.5.5A2.5,2.5,0,0,0,19.5,52h5A2.5,2.5,0,0,0,27,49.5v-4a.5.5,0,0,1,.5-.5h4a.5.5,0,0,1,.5.5v7A2.5,2.5,0,0,0,34.5,55h3a.5.5,0,0,1,.5.5ZM13,42a1,1,0,1,1,1,1A1,1,0,0,1,13,42Zm46.72-6.12V36c-.06.38-.12.75-.19,1.12l-.06.34c0,.27-.11.53-.17.79s-.1.45-.16.68-.07.26-.1.39a28.1,28.1,0,0,1-9.42,14.47.41.41,0,0,1-.4,0,.37.37,0,0,1-.22-.35A2.41,2.41,0,0,0,46.59,51H43.41a.41.41,0,0,1-.41-.41V46.41a.41.41,0,0,1,.41-.41H45v1h2V46h4.59A2.41,2.41,0,0,0,54,43.59V40.41a.41.41,0,0,1,.41-.41h.18A2.41,2.41,0,0,0,57,37.59V34.43a.41.41,0,0,1,.12-.29.79.79,0,0,1,.29-.12l2.07,0a.44.44,0,0,1,.29.13.44.44,0,0,1,.11.35C59.84,35,59.79,35.43,59.72,35.88ZM45,39a1,1,0,1,1,1,1A1,1,0,0,1,45,39Zm15-6.89a3.86,3.86,0,0,0-.49-.06l-2.07,0a2.33,2.33,0,0,0-1.72.69A2.38,2.38,0,0,0,55,34.43v3.16a.41.41,0,0,1-.41.41h-.18A2.41,2.41,0,0,0,52,40.41v3.18a.41.41,0,0,1-.41.41H47V41.82a3,3,0,1,0-2,0V44H43.41A2.41,2.41,0,0,0,41,46.41v4.18A2.41,2.41,0,0,0,43.41,53h3.18a.41.41,0,0,1,.41.41,2.38,2.38,0,0,0,.75,1.73A27.94,27.94,0,0,1,40,58.83V55.5A2.5,2.5,0,0,0,37.5,53h-3a.5.5,0,0,1-.5-.5v-7A2.5,2.5,0,0,0,31.5,43h-4A2.5,2.5,0,0,0,25,45.5v4a.5.5,0,0,1-.5.5h-5a.5.5,0,0,1-.5-.5A2.5,2.5,0,0,0,16.5,47H15V44.82a3,3,0,1,0-2,0V47H8.38A27.75,27.75,0,0,1,4.45,37L7,37H7a3,3,0,0,0,3-3V32a1,1,0,0,1,1-1h5a3,3,0,0,0,3-3,1,1,0,0,1,1-1h3a3,3,0,0,0,3-3V21a3,3,0,0,0-3-3H21V15.82a3,3,0,1,0-2,0V18H16a1,1,0,0,1-1-1,3,3,0,0,0-3-3H10.57A28,28,0,0,1,32,4l.78,0A4,4,0,0,0,32,6.26V7a4,4,0,0,0,4,4,2,2,0,0,1,0,4H33a4,4,0,0,0,0,8h8a2,2,0,0,1,2,2.06,4,4,0,0,0,3.93,4l10.12.15h.06a4,4,0,0,0,2.62-1A28.24,28.24,0,0,1,60,32Z"/><path d="M33.5,27h-3a3.5,3.5,0,0,0,0,7h3a3.5,3.5,0,0,0,0-7Zm0,5h-3a1.5,1.5,0,0,1,0-3h3a1.5,1.5,0,0,1,0,3Z"/><path d="M49,19.82V25h2V19.82a3,3,0,1,0-2,0ZM50,16a1,1,0,1,1-1,1A1,1,0,0,1,50,16Z"/></svg>
