<svg xmlns="http://www.w3.org/2000/svg" xmlns:xlink="http://www.w3.org/1999/xlink" version="1.1" x="0px" y="0px" viewBox="0 19 106 80" style="enable-background:new 0 0 100 100;" xml:space="preserve"><path d="M50.125,89.968c22.038,0,39.968-17.93,39.968-39.968c0-10.982-4.454-20.941-11.647-28.173  c-0.023-0.028-0.033-0.062-0.059-0.089c-0.026-0.026-0.06-0.036-0.088-0.059c-7.231-7.194-17.191-11.648-28.173-11.648  c-10.872,0-20.739,4.369-27.951,11.437c-0.034,0.026-0.075,0.039-0.106,0.07c-0.026,0.026-0.036,0.06-0.059,0.088  C14.695,28.873,10.157,38.916,10.157,50C10.157,72.039,28.087,89.968,50.125,89.968z M24.014,77.525l1.626-1.626  c1.291,0.891,2.897,1.262,4.464,1.614c1.305,0.293,2.537,0.57,3.49,1.122c0.928,0.537,1.769,1.454,2.659,2.425  c1.327,1.448,2.7,2.946,4.624,3.46c1.842,0.491,3.741-0.101,5.578-0.673c1.3-0.406,2.527-0.789,3.67-0.789s2.371,0.383,3.671,0.789  c1.355,0.423,2.745,0.857,4.121,0.857c0.487,0,0.974-0.055,1.456-0.184c1.924-0.514,3.297-2.012,4.624-3.46  c0.891-0.972,1.731-1.889,2.659-2.426c0.953-0.552,2.186-0.829,3.491-1.122c1.519-0.341,3.074-0.7,4.344-1.534l1.634,1.652  c-6.799,6.402-15.946,10.337-26,10.337C40.016,87.968,30.825,83.989,24.014,77.525z M24.564,69.584  c-0.313-1.394-0.638-2.836-1.343-4.054c-0.69-1.193-1.766-2.179-2.806-3.132c-1.294-1.186-2.517-2.305-2.88-3.665  c-0.343-1.284,0.141-2.83,0.651-4.466c0.333-1.066,0.669-2.16,0.809-3.267h2.381c4.416,5.32,7.074,11.737,7.712,18.621l-3.42,3.42  C25.131,72.098,24.853,70.869,24.564,69.584z M25.808,26.743l3.315,3.353c-0.59,6.991-3.269,13.51-7.746,18.904h-2.381  c-0.14-1.107-0.476-2.201-0.809-3.267c-0.511-1.637-0.994-3.183-0.651-4.465c0.363-1.36,1.586-2.479,2.88-3.666  c1.04-0.953,2.115-1.938,2.806-3.132c0.705-1.218,1.029-2.66,1.342-4.053C24.875,29.029,25.178,27.711,25.808,26.743z   M75.686,30.416c0.313,1.394,0.638,2.836,1.343,4.054c0.69,1.193,1.766,2.179,2.806,3.132c1.294,1.186,2.517,2.305,2.88,3.665  c0.343,1.284-0.141,2.83-0.651,4.466c-0.333,1.066-0.669,2.16-0.809,3.267h-2.381c-4.416-5.32-7.074-11.737-7.712-18.621l3.42-3.42  C75.119,27.902,75.397,29.131,75.686,30.416z M74.509,73.152l-3.364-3.402c0.617-6.933,3.284-13.396,7.728-18.75h2.381  c0.14,1.107,0.476,2.201,0.809,3.267c0.511,1.637,0.994,3.183,0.651,4.465c-0.363,1.36-1.586,2.479-2.88,3.666  c-1.04,0.953-2.115,1.938-2.806,3.132c-0.705,1.218-1.029,2.66-1.342,4.053C75.386,70.921,75.094,72.195,74.509,73.152z   M49.125,59.978c-1.635-1.066-3.44-1.813-5.349-2.216l5.349-5.349V59.978z M51.125,52.347l5.354,5.414  c-1.911,0.402-3.718,1.15-5.354,2.217V52.347z M52.605,51h7.498c-1.064,1.633-1.812,3.436-2.214,5.343L52.605,51z M52.539,49  l5.349-5.348c0.403,1.909,1.15,3.714,2.215,5.348H52.539z M51.125,47.586v-7.564c1.635,1.066,3.44,1.813,5.349,2.216L51.125,47.586z   M49.125,47.48l-5.215-5.274c1.859-0.409,3.619-1.144,5.215-2.184V47.48z M47.815,49h-7.668c1.09-1.673,1.852-3.524,2.247-5.483  L47.815,49z M47.711,51l-5.349,5.348c-0.403-1.909-1.15-3.714-2.215-5.348H47.711z M42.028,59.511  c2.61,0.291,5.044,1.299,7.097,2.939v5.906c-3.351-2.432-7.185-4.02-11.273-4.669L42.028,59.511z M51.125,62.45  c2.05-1.637,4.48-2.645,7.085-2.938l4.135,4.182c-4.068,0.655-7.883,2.24-11.22,4.662V62.45z M59.634,58.109  c0.29-2.615,1.299-5.054,2.94-7.109h5.906c-2.442,3.365-4.032,7.217-4.677,11.326L59.634,58.109z M62.575,49  c-1.639-2.052-2.648-4.487-2.939-7.097l4.176-4.176c0.65,4.089,2.238,7.922,4.669,11.273H62.575z M58.222,40.489  c-2.61-0.291-5.044-1.299-7.097-2.939v-5.906c3.351,2.432,7.185,4.02,11.273,4.669L58.222,40.489z M49.125,37.55  c-2.009,1.605-4.385,2.605-6.932,2.92l-4.139-4.186c4.013-0.669,7.775-2.248,11.071-4.64V37.55z M40.634,41.737  c-0.267,2.673-1.285,5.167-2.959,7.263h-5.906c2.472-3.406,4.07-7.312,4.699-11.476L40.634,41.737z M37.675,51  c1.639,2.052,2.648,4.487,2.939,7.097l-4.176,4.176C35.788,58.184,34.2,54.351,31.769,51H37.675z M36.066,65.473  c4.82,0.471,9.315,2.333,13.059,5.408v5.327c-4.94-3.745-10.684-6.124-16.825-6.969L36.066,65.473z M51.125,70.881  c3.725-3.06,8.194-4.917,12.987-5.4l3.73,3.773c-6.101,0.858-11.806,3.231-16.717,6.954V70.881z M65.589,64.131  c0.46-4.848,2.326-9.369,5.416-13.131h5.327c-3.767,4.969-6.153,10.751-6.984,16.933L65.589,64.131z M71.005,49  c-3.075-3.743-4.936-8.238-5.408-13.058l3.766-3.766C70.208,38.317,72.587,44.06,76.333,49H71.005z M64.184,34.527  c-4.82-0.471-9.315-2.333-13.059-5.408v-5.327c4.94,3.745,10.684,6.124,16.825,6.969L64.184,34.527z M49.125,29.119  c-3.685,3.027-8.099,4.875-12.834,5.382l-3.733-3.775c6.044-0.875,11.696-3.24,16.567-6.933V29.119z M34.679,35.715  c-0.434,4.907-2.312,9.483-5.435,13.285h-5.327c3.798-5.01,6.193-10.846,7.005-17.084L34.679,35.715z M29.245,51  c3.075,3.743,4.936,8.238,5.408,13.058l-3.766,3.766C30.042,61.683,27.663,55.94,23.917,51H29.245z M30.503,71.036  c6.884,0.638,13.302,3.296,18.622,7.713v2.38c-1.107,0.14-2.201,0.476-3.266,0.809c-1.638,0.51-3.183,0.993-4.467,0.65  c-1.359-0.363-2.479-1.585-3.665-2.879c-0.953-1.04-1.938-2.115-3.132-2.805c-1.218-0.706-2.66-1.029-4.055-1.342  c-1.285-0.289-2.515-0.567-3.458-1.106L30.503,71.036z M51.125,78.749c5.287-4.389,11.658-7.039,18.494-7.698l3.429,3.467  c-0.927,0.497-2.106,0.766-3.338,1.043c-1.395,0.313-2.836,0.637-4.055,1.342c-1.193,0.691-2.179,1.766-3.132,2.806  c-1.186,1.293-2.306,2.516-3.666,2.879c-1.28,0.343-2.828-0.139-4.465-0.65c-1.066-0.333-2.16-0.669-3.267-0.809V78.749z   M69.747,28.964c-6.884-0.638-13.302-3.296-18.622-7.713v-2.38c1.107-0.14,2.201-0.476,3.266-0.809  c1.637-0.511,3.181-0.995,4.467-0.65c1.359,0.363,2.479,1.585,3.665,2.879c0.953,1.04,1.938,2.115,3.132,2.805  c1.218,0.706,2.66,1.029,4.055,1.342c1.285,0.289,2.515,0.567,3.458,1.106L69.747,28.964z M49.125,21.251  c-5.247,4.357-11.564,6.996-18.341,7.68l-3.467-3.506c0.909-0.46,2.041-0.72,3.224-0.986c1.395-0.313,2.836-0.637,4.055-1.342  c1.193-0.691,2.179-1.766,3.132-2.806c1.186-1.293,2.306-2.516,3.666-2.879c1.28-0.343,2.829,0.14,4.465,0.65  c1.066,0.333,2.16,0.669,3.267,0.809V21.251z M77.544,76.222l-1.6-1.618c0.952-1.31,1.331-2.968,1.694-4.582  c0.293-1.305,0.57-2.537,1.121-3.49c0.537-0.928,1.455-1.769,2.427-2.659c1.448-1.328,2.946-2.7,3.46-4.624  c0.492-1.842-0.101-3.741-0.674-5.578c-0.405-1.3-0.789-2.527-0.789-3.67c0-1.143,0.383-2.371,0.789-3.67  c0.573-1.836,1.166-3.736,0.674-5.579c-0.514-1.923-2.012-3.296-3.46-4.623c-0.972-0.891-1.89-1.731-2.427-2.66  c-0.552-0.953-0.828-2.186-1.121-3.491c-0.352-1.567-0.723-3.172-1.613-4.462l1.626-1.626C84.114,30.7,88.093,39.891,88.093,50  C88.093,60.164,84.071,69.4,77.544,76.222z M76.236,22.475l-1.626,1.626c-1.291-0.891-2.897-1.262-4.464-1.614  c-1.305-0.293-2.537-0.57-3.49-1.122c-0.928-0.537-1.769-1.454-2.659-2.425c-1.327-1.448-2.7-2.946-4.624-3.46  c-1.843-0.493-3.741,0.1-5.578,0.673c-1.3,0.406-2.527,0.789-3.67,0.789s-2.371-0.383-3.671-0.789  c-1.836-0.573-3.733-1.167-5.577-0.673c-1.924,0.514-3.297,2.012-4.624,3.46c-0.891,0.972-1.731,1.889-2.659,2.426  c-0.953,0.552-2.186,0.829-3.491,1.122c-1.478,0.332-2.991,0.679-4.242,1.465l-1.648-1.667c6.79-6.353,15.902-10.254,25.912-10.254  C60.234,12.032,69.425,16.011,76.236,22.475z M22.789,23.69l1.586,1.604c-1.007,1.325-1.391,3.029-1.763,4.685  c-0.293,1.305-0.57,2.537-1.121,3.49c-0.537,0.928-1.455,1.769-2.427,2.659c-1.448,1.328-2.946,2.7-3.46,4.624  c-0.492,1.842,0.101,3.741,0.674,5.578c0.405,1.3,0.789,2.527,0.789,3.67c0,1.143-0.383,2.371-0.789,3.67  c-0.573,1.836-1.166,3.736-0.674,5.579c0.514,1.923,2.012,3.296,3.46,4.623c0.972,0.891,1.89,1.731,2.427,2.66  c0.552,0.953,0.828,2.186,1.121,3.491c0.352,1.567,0.723,3.172,1.613,4.462L22.6,76.111C16.136,69.3,12.157,60.109,12.157,50  C12.157,39.793,16.213,30.52,22.789,23.69z"/></svg>
