<svg xmlns="http://www.w3.org/2000/svg" data-name="Layer 1" viewBox="0 0 64 80" x="0px" y="0px"><title>forest-tree-ecology-plant-garden-orchard-landscape</title><path d="M59.37,42.35C61.19,40.61,62,37.41,62,32c0-9-3.06-30-9-30s-9,21-9,30c0,5.41.81,8.61,2.63,10.35C48.12,43.77,50.05,44,52,44V60H33V44c2,0,3.88-.22,5.37-1.64C40.19,40.61,41,37.41,41,32c0-9-3.06-30-9-30s-9,21-9,30c0,5.41.81,8.61,2.63,10.35C27.12,43.77,29.05,44,31,44V60H12V44c1.95,0,3.88-.22,5.37-1.64C19.19,40.61,20,37.41,20,32c0-9-3.06-30-9-30S2,23,2,32c0,5.41.81,8.61,2.63,10.35C6.12,43.77,8.05,44,10,44V60H2v2H62V60H54V44C56,44,57.88,43.77,59.37,42.35ZM27,40.9c-1.36-1.3-2-4.21-2-8.9,0-12.3,3.92-28,7-28s7,15.7,7,28c0,4.69-.66,7.6-2,8.9C36,41.83,34.67,42,33,42V39.3l3.83-5.75-1.66-1.1L33,35.7V29H31v4.7l-2.17-3.25-1.66,1.1L31,37.3V42C29.33,42,28,41.83,27,40.9Zm-21,0C4.66,39.6,4,36.69,4,32,4,19.7,7.92,4,11,4s7,15.7,7,28c0,4.69-.66,7.6-2,8.9C15,41.83,13.67,42,12,42V39.41l3.71-3.7-1.42-1.42L12,36.59V29H10v6.7L7.83,32.45l-1.66,1.1L10,39.3V42C8.33,42,7,41.83,6,40.9Zm42,0c-1.36-1.3-2-4.21-2-8.9,0-12.3,3.92-28,7-28s7,15.7,7,28c0,4.69-.66,7.6-2,8.9C57,41.83,55.67,42,54,42V39.3l3.83-5.75-1.66-1.1L54,35.7V29H52v7.59l-2.29-2.3-1.42,1.42L52,39.41V42C50.33,42,49,41.83,48,40.9Z"/><text x="0" y="79" fill="#000000" font-size="5px" font-weight="bold" font-family="'Helvetica Neue', Helvetica, Arial-Unicode, Arial, Sans-serif">Created by Nithinan Tatah</text><text x="0" y="84" fill="#000000" font-size="5px" font-weight="bold" font-family="'Helvetica Neue', Helvetica, Arial-Unicode, Arial, Sans-serif">from the Noun Project</text></svg>