<svg xmlns="http://www.w3.org/2000/svg" data-name="Layer 1" viewBox="0 0 64 80" x="0px" y="0px"><title>externally-external-outside-surface-migration</title><path d="M31,50.949V59l-2.4-1.8-1.2,1.6,4,3a1,1,0,0,0,1.2,0l4-3-1.2-1.6L33,59V50.949A18.892,18.892,0,0,0,44.688,46.1l5.7,5.7-2.97.425L47.7,54.2l4.949-.707a1,1,0,0,0,.849-.849L54.2,47.7l-1.98-.283-.424,2.97-5.7-5.7A18.892,18.892,0,0,0,50.949,33H59l-1.8,2.4,1.6,1.2,3-4a1,1,0,0,0,0-1.2l-3-4-1.6,1.2L59,31H50.949A18.892,18.892,0,0,0,46.1,19.312l5.7-5.7.424,2.97L54.2,16.3,53.5,11.353a1,1,0,0,0-.849-.849L47.7,9.8l-.283,1.979,2.97.425-5.7,5.7A18.892,18.892,0,0,0,33,13.051V5l2.4,1.8,1.2-1.6-4-3a1,1,0,0,0-1.2,0l-4,3,1.2,1.6L31,5v8.051A18.892,18.892,0,0,0,19.312,17.9l-5.7-5.7,2.97-.425L16.3,9.8l-4.949.707a1,1,0,0,0-.849.849L9.8,16.3l1.98.283.424-2.97,5.7,5.7A18.892,18.892,0,0,0,13.051,31H5l1.8-2.4L5.2,27.4l-3,4a1,1,0,0,0,0,1.2l3,4,1.6-1.2L5,33h8.051A18.892,18.892,0,0,0,17.9,44.688l-5.7,5.7-.424-2.97L9.8,47.7l.707,4.949a1,1,0,0,0,.849.849L16.3,54.2l.283-1.979-2.97-.425,5.7-5.7A18.892,18.892,0,0,0,31,50.949ZM32,15A17,17,0,1,1,15,32,17.019,17.019,0,0,1,32,15Z"/><path d="M35.451,40.315l.768,1.847a10.961,10.961,0,0,0,3.563-2.388l-1.414-1.413A8.974,8.974,0,0,1,35.451,40.315Z"/><path d="M24.233,39.79l1.413-1.416a8.982,8.982,0,0,1-1.958-2.915l-1.845.77A10.953,10.953,0,0,0,24.233,39.79Z"/><path d="M42.148,27.75a10.953,10.953,0,0,0-2.4-3.555l-1.41,1.419a8.958,8.958,0,0,1,1.964,2.91Z"/><path d="M28.532,23.693l-.771-1.846A10.969,10.969,0,0,0,24.2,24.242l1.418,1.41A8.946,8.946,0,0,1,28.532,23.693Z"/><path d="M23.675,28.575l-1.85-.762A10.925,10.925,0,0,0,21,32v.021L23,32A8.934,8.934,0,0,1,23.675,28.575Z"/><path d="M40.318,35.442l1.848.766A10.922,10.922,0,0,0,43,32v-.041L41,32A8.929,8.929,0,0,1,40.318,35.442Z"/><path d="M28.565,40.322,27.8,42.17A10.928,10.928,0,0,0,32,43h.01L32,41A8.95,8.95,0,0,1,28.565,40.322Z"/><path d="M35.417,23.671l.76-1.85A10.935,10.935,0,0,0,32,21h-.03L32,23A8.951,8.951,0,0,1,35.417,23.671Z"/><path d="M32,36a4,4,0,1,0-4-4A4,4,0,0,0,32,36Zm0-6a2,2,0,1,1-2,2A2,2,0,0,1,32,30Z"/><text x="0" y="79" fill="#000000" font-size="5px" font-weight="bold" font-family="'Helvetica Neue', Helvetica, Arial-Unicode, Arial, Sans-serif">Created by Nithinan Tatah</text><text x="0" y="84" fill="#000000" font-size="5px" font-weight="bold" font-family="'Helvetica Neue', Helvetica, Arial-Unicode, Arial, Sans-serif">from the Noun Project</text></svg>