<svg xmlns="http://www.w3.org/2000/svg" data-name="Layer 1" viewBox="0 0 64 80" x="0px" y="0px"><title>birds-poultry-pet-animal-fowl-bird</title><path d="M32,32a2,2,0,1,0-2-2A1.957,1.957,0,0,0,32,32Z"/><path d="M15,37.5A3.5,3.5,0,0,0,18.5,41H23V39H18.5a1.5,1.5,0,0,1,0-3H23V34H18.5A3.5,3.5,0,0,0,15,37.5Z"/><path d="M39.5,6a1.477,1.477,0,0,0-1.122.492A1.511,1.511,0,0,0,38,7.5a1.508,1.508,0,0,0,2.622,1.008A1.511,1.511,0,0,0,41,7.5,1.484,1.484,0,0,0,39.5,6Zm.373,1.82a.492.492,0,1,1-.746-.64A.518.518,0,0,1,39.5,7a.528.528,0,0,1,.5.5A.484.484,0,0,1,39.873,7.82Z"/><path d="M48,10.523H45v2h3a1,1,0,0,1,0,2H45v2h3a3,3,0,0,0,0-6Z"/><path d="M51.46,51.875,61.942,22.334l-1.884-.668L57.9,27.747l-8.046-1.694,1.707-3.415a1,1,0,0,0,0-.9l-1.082-2.165a21.289,21.289,0,0,0,6.9-3.248l4.2-3a1,1,0,0,0-.23-1.75L50.823,7.634,45.63,3.563A7.139,7.139,0,0,0,35.062,5.446c-.09.148-.16.309-.236.466L29.754,7.2a1,1,0,0,0-.208,1.862l5.013,2.551a9.923,9.923,0,0,0,1.232,2.7l.9,1.37a9.941,9.941,0,0,0,8.232,4.631l.934,1.868-1.417,2.73-4.231-.891-.412,1.958,17.431,3.669-7.951,22.41L25.585,54.032,23.14,49.956l1.43-2.86c.087,0,.173.009.26.009a13.085,13.085,0,0,0,10.813-6.117l1.214-1.856a13.1,13.1,0,0,0,1.668-3.713l6.929-3.527a1,1,0,0,0-.208-1.862L38.22,28.251a7.493,7.493,0,0,0-.381-.754,9.318,9.318,0,0,0-13.794-2.456l-6.56,5.249L2.649,35.958a1,1,0,0,0-.23,1.75l5.688,4.063a28.46,28.46,0,0,0,9.66,4.46l-1.662,3.322a1,1,0,0,0,0,.894l2.1,4.2L1.917,56,2.083,58l60-5L61.917,51ZM34.171,9.168l-1.346-.686L34.2,8.134a7.287,7.287,0,0,0-.036.728C34.167,8.964,34.168,9.066,34.171,9.168Zm10.723,9.147a7.92,7.92,0,0,1-6.533-3.728l-.9-1.37a7.913,7.913,0,0,1-1.144-2.878c-.029-.152-.061-.3-.081-.457a8.055,8.055,0,0,1-.073-1.02,5.2,5.2,0,0,1,.071-.835c.008-.048.017-.094.026-.141a4.689,4.689,0,0,1,.21-.769l0-.006a3.833,3.833,0,0,1,.3-.63h0a5.139,5.139,0,0,1,7.608-1.355l4.888,3.91a1.029,1.029,0,0,0,.128.087l.505.287a1.011,1.011,0,0,0,.145.069L58.891,12.8,56.22,14.7A19.331,19.331,0,0,1,44.894,18.315Zm2.936,7.312-1.361-.287,1.395-2.689a1,1,0,0,0,.007-.908L47.1,20.2c.458-.046.915-.1,1.367-.175l1.084,2.169Zm-5.655,5.689-3.216,1.637c.026-.335.041-.672.041-1.011a9.691,9.691,0,0,0-.1-1.375c0-.027,0-.056-.007-.084ZM9.27,40.145,5.108,37.172l12.607-4.728a.968.968,0,0,0,.142-.066l.684-.388a.974.974,0,0,0,.131-.089l6.622-5.3a7.316,7.316,0,0,1,10.833,1.928,5.622,5.622,0,0,1,.433.92h0a6.749,6.749,0,0,1,.3,1.093c.013.069.028.137.039.207a7.374,7.374,0,0,1,.1,1.189,10.979,10.979,0,0,1-.071,1.2c-.005.046-.01.093-.016.14A11.276,11.276,0,0,1,36.7,34.5v.01a11.109,11.109,0,0,1-1.511,3.524l-1.215,1.858a11.114,11.114,0,0,1-9.219,5.211A26.489,26.489,0,0,1,9.27,40.145ZM20.352,54.468,18.118,50l1.672-3.344c.856.149,1.718.27,2.593.342l-1.278,2.555a1,1,0,0,0,.038.962l2.221,3.7Z"/><rect x="1.896" y="57.5" width="60.208" height="1.999" transform="translate(-4.748 2.86) rotate(-4.764)"/><text x="0" y="79" fill="#000000" font-size="5px" font-weight="bold" font-family="'Helvetica Neue', Helvetica, Arial-Unicode, Arial, Sans-serif">Created by Nithinan Tatah</text><text x="0" y="84" fill="#000000" font-size="5px" font-weight="bold" font-family="'Helvetica Neue', Helvetica, Arial-Unicode, Arial, Sans-serif">from the Noun Project</text></svg>