<svg xmlns="http://www.w3.org/2000/svg" data-name="Layer 1" viewBox="0 0 64 80" x="0px" y="0px"><title>topography-contour-line-map-topographic-landscape-circle</title><path d="M32,2A30,30,0,1,0,62,32,30,30,0,0,0,32,2ZM58.21,22.16c-7.1,1.73-11.47,1.82-13,.26s-.53-4.64.41-8a36.76,36.76,0,0,0,1.3-6.05A28.13,28.13,0,0,1,58.21,22.16ZM59.8,35.3C39.65,41,27.79,42,24.57,38.13,21.73,34.75,25.43,27.25,29,20c2.72-5.51,5.51-11.19,5.93-15.83.69.07,1.36.17,2,.29-.14,3.47-1.89,8-3.59,12.42-2.84,7.31-5.52,14.23-2,17.93,1.45,1.51,3.84,2.27,7.27,2.27,4.9,0,11.92-1.56,21.31-4.68A28.06,28.06,0,0,1,59.8,35.3ZM32.85,33.42c-2.67-2.79-.1-9.42,2.39-15.83C37,13.17,38.7,8.62,39,4.87c.59.16,1.17.33,1.75.52A40.94,40.94,0,0,1,39.38,13c-1.27,5.37-2.59,10.92.64,14.15,1.67,1.68,4.36,2.51,8.22,2.51A54.06,54.06,0,0,0,59.72,28.1c.1.72.18,1.46.22,2.2C44.85,35.36,35.73,36.42,32.85,33.42Zm8.58-7.67C39,23.3,40.18,18.3,41.32,13.47a47.29,47.29,0,0,0,1.35-7.35A24.51,24.51,0,0,1,45,7.21a28.86,28.86,0,0,1-1.29,6.65c-1.09,4-2.12,7.7.09,10,1.11,1.14,2.9,1.71,5.52,1.71a41.74,41.74,0,0,0,9.54-1.47c.2.68.38,1.37.53,2.07C49.87,28.28,43.83,28.16,41.43,25.75ZM33,4c-.4,4.26-3.11,9.76-5.73,15.09C23.18,27.3,19.36,35,23,39.42c1.71,2,4.85,3.07,9.65,3.07,6.09,0,14.87-1.67,26.78-5a28.94,28.94,0,0,1-1,3.6c-23.76,4.73-37.57,4.65-41-.25-3-4.24,1.67-12.11,6.19-19.73,3.84-6.48,7.47-12.63,6.71-17,.55,0,1.1,0,1.66,0ZM56.77,45c-26,5.2-40.65,5.12-44.7-.24-3.39-4.48.94-12.91,5.12-21.07C20.5,17.27,23.92,10.6,24,5.17a27.44,27.44,0,0,1,4.36-.92c.77,3.66-2.89,9.83-6.45,15.83C17.06,28.25,12.05,36.69,15.81,42c2.17,3.06,7.06,4.59,15,4.59,6.71,0,15.59-1.1,26.82-3.29Q57.22,44.18,56.77,45ZM32,60A28,28,0,0,1,22,5.87c-.34,4.85-3.49,11-6.55,16.94-4.67,9.1-9.08,17.7-4.94,23.19,2.45,3.23,7.74,4.84,16.2,4.84,7.21,0,16.73-1.17,28.74-3.51A28,28,0,0,1,32,60Z"/><text x="0" y="79" fill="#000000" font-size="5px" font-weight="bold" font-family="'Helvetica Neue', Helvetica, Arial-Unicode, Arial, Sans-serif">Created by Nithinan Tatah</text><text x="0" y="84" fill="#000000" font-size="5px" font-weight="bold" font-family="'Helvetica Neue', Helvetica, Arial-Unicode, Arial, Sans-serif">from the Noun Project</text></svg>