<svg xmlns="http://www.w3.org/2000/svg" data-name="Layer 1" viewBox="0 0 64 80" x="0px" y="0px"><title>cognitive-learning-study-knowledge-information</title><path d="M48,26a3,3,0,1,0-3,3A3,3,0,0,0,48,26Zm-4,0a1,1,0,1,1,1,1A1,1,0,0,1,44,26Z"/><path d="M43.928,33.921a7.313,7.313,0,0,0,2.144,0,1,1,0,0,0,.755-.533l.6-1.156c.09-.035.179-.072.267-.112l1.241.4a1.01,1.01,0,0,0,.911-.158,8.018,8.018,0,0,0,1.517-1.518,1,1,0,0,0,.158-.909l-.4-1.241c.04-.089.077-.179.112-.269l1.156-.594a1,1,0,0,0,.533-.754,7.34,7.34,0,0,0,0-2.148,1,1,0,0,0-.533-.754l-1.156-.594c-.035-.09-.072-.18-.112-.269l.4-1.241a1,1,0,0,0-.158-.91,7.96,7.96,0,0,0-1.518-1.517,1,1,0,0,0-.91-.157l-1.24.4c-.088-.04-.178-.077-.268-.112l-.6-1.156a1,1,0,0,0-.755-.533,7.2,7.2,0,0,0-2.144,0,1,1,0,0,0-.755.533l-.6,1.156c-.09.035-.179.072-.267.112l-1.241-.4a1,1,0,0,0-.911.158,8.018,8.018,0,0,0-1.517,1.518,1,1,0,0,0-.158.909l.4,1.241c-.04.089-.077.179-.112.269l-1.156.594a1,1,0,0,0-.533.754,7.333,7.333,0,0,0,0,2.147,1,1,0,0,0,.533.754l1.156.595c.035.09.072.18.112.269l-.4,1.241a1,1,0,0,0,.158.91,8,8,0,0,0,1.516,1.516,1,1,0,0,0,.911.158l1.241-.4c.088.04.178.077.268.112l.6,1.156A1,1,0,0,0,43.928,33.921Zm-1.085-3.762a.993.993,0,0,0-.765-.065l-1.1.35a5.667,5.667,0,0,1-.424-.425l.35-1.1a1.007,1.007,0,0,0-.065-.765,4.549,4.549,0,0,1-.31-.741,1,1,0,0,0-.5-.589L39.01,26.3C39,26.2,39,26.1,39,26s0-.2.01-.3l1.025-.529a1,1,0,0,0,.5-.589,4.549,4.549,0,0,1,.31-.741,1.007,1.007,0,0,0,.065-.765l-.35-1.1a5.693,5.693,0,0,1,.425-.426l1.1.351a1,1,0,0,0,.767-.065,4.608,4.608,0,0,1,.741-.311,1,1,0,0,0,.587-.5L44.7,20.01a4.559,4.559,0,0,1,.6,0l.528,1.025a1,1,0,0,0,.586.5,4.8,4.8,0,0,1,.745.311.994.994,0,0,0,.765.065l1.1-.35a5.863,5.863,0,0,1,.424.425l-.35,1.1a1.007,1.007,0,0,0,.065.765,4.549,4.549,0,0,1,.31.741,1,1,0,0,0,.5.589l1.025.529c.007.1.01.2.01.3s0,.2-.01.3l-1.025.529a1,1,0,0,0-.5.589,4.549,4.549,0,0,1-.31.741,1.007,1.007,0,0,0-.065.765l.35,1.1a5.693,5.693,0,0,1-.425.426l-1.1-.351a1.008,1.008,0,0,0-.767.065,4.608,4.608,0,0,1-.741.311,1,1,0,0,0-.587.5L45.3,31.99a4.559,4.559,0,0,1-.6,0l-.528-1.025a1,1,0,0,0-.586-.5A4.8,4.8,0,0,1,42.843,30.159Z"/><path d="M23,36V27.931a8,8,0,1,0-2,0V36ZM16,20a6,6,0,1,1,6,6A6.006,6.006,0,0,1,16,20Z"/><path d="M22,16a4,4,0,0,0-4,4h2a2,2,0,0,1,2-2Z"/><path d="M40,39H27a1,1,0,0,0-1,1v6H23a1,1,0,0,0-.781,1.625l2.713,3.392A5.261,5.261,0,0,0,29.06,53H40a1,1,0,0,0,1-1V40A1,1,0,0,0,40,39ZM39,51H29.06a3.272,3.272,0,0,1-2.566-1.233L25.08,48H27a1,1,0,0,0,1-1V41H39Z"/><rect x="30" y="43" width="7" height="2"/><rect x="30" y="47" width="2" height="2"/><rect x="34" y="47" width="3" height="2"/><path d="M37.944,4.65A27.73,27.73,0,0,0,32,4,27.988,27.988,0,0,0,4.644,37.957C.89,46.893,1.141,54.419,5.36,58.64c2.254,2.254,5.44,3.365,9.244,3.365a30.121,30.121,0,0,0,11.432-2.651A27.986,27.986,0,0,0,60,32c0-.694-.025-1.392-.076-2.073a27.933,27.933,0,0,0-.546-3.791c3.654-8.622,3.675-16.363-.738-20.776C54.419,1.138,46.886.889,37.944,4.65ZM6.774,57.226c-3.248-3.249-3.655-9.01-1.223-16.053A28.128,28.128,0,0,0,22.8,58.439C15.888,60.794,10.011,60.461,6.774,57.226ZM57.93,30.073h0c.047.633.07,1.28.07,1.926A25.989,25.989,0,0,1,29.251,57.853c1.077-.55,2.162-1.135,3.263-1.8l-1.028-1.716a49.526,49.526,0,0,1-5.632,2.918A26,26,0,1,1,57.273,25.912,62.576,62.576,0,0,1,44.261,44.258q-.519.519-1.041,1.021L44.6,46.721c.359-.344.713-.693,1.07-1.048A66.912,66.912,0,0,0,57.86,29.364C57.884,29.6,57.912,29.835,57.93,30.073Zm.541-7.175A28.234,28.234,0,0,0,41.164,5.554c7.048-2.435,12.811-2.029,16.062,1.22C60.616,10.165,60.841,16.085,58.471,22.9Z"/><text x="0" y="79" fill="#000000" font-size="5px" font-weight="bold" font-family="'Helvetica Neue', Helvetica, Arial-Unicode, Arial, Sans-serif">Created by Nithinan Tatah</text><text x="0" y="84" fill="#000000" font-size="5px" font-weight="bold" font-family="'Helvetica Neue', Helvetica, Arial-Unicode, Arial, Sans-serif">from the Noun Project</text></svg>